<mxfile host="app.diagrams.net" modified="2023-12-24T10:28:02.171Z" agent="Mozilla/5.0 (Windows NT 10.0; Win64; x64) AppleWebKit/537.36 (KHTML, like Gecko) Chrome/120.0.0.0 Safari/537.36" version="22.1.11" etag="eWhRTjnmQjeNKOEcq9WY" type="github">
  <diagram name="Page-1" id="jJ7mcivA_Vy1OE8EyqTP">
    <mxGraphModel dx="1802" dy="810" grid="1" gridSize="10" guides="1" tooltips="1" connect="1" arrows="1" fold="1" page="1" pageScale="1" pageWidth="850" pageHeight="1100" math="0" shadow="0">
      <root>
        <mxCell id="0" />
        <mxCell id="1" parent="0" />
        <mxCell id="ItPj21Zff-Ay7ue9UR-A-2" style="edgeStyle=orthogonalEdgeStyle;rounded=0;orthogonalLoop=1;jettySize=auto;html=1;entryX=0.5;entryY=0;entryDx=0;entryDy=0;" parent="1" source="ZPZEaO1pDgrNCMAehvOr-1" target="ItPj21Zff-Ay7ue9UR-A-4" edge="1">
          <mxGeometry relative="1" as="geometry">
            <mxPoint x="875" y="270" as="targetPoint" />
          </mxGeometry>
        </mxCell>
        <mxCell id="ZPZEaO1pDgrNCMAehvOr-1" value="&lt;font style=&quot;font-size: 22px;&quot;&gt;Start Application&lt;/font&gt;" style="ellipse;whiteSpace=wrap;html=1;" parent="1" vertex="1">
          <mxGeometry x="754" width="245" height="190" as="geometry" />
        </mxCell>
        <mxCell id="ItPj21Zff-Ay7ue9UR-A-3" style="edgeStyle=orthogonalEdgeStyle;rounded=0;orthogonalLoop=1;jettySize=auto;html=1;exitX=0.5;exitY=1;exitDx=0;exitDy=0;" parent="1" edge="1">
          <mxGeometry relative="1" as="geometry">
            <mxPoint x="875" y="330" as="sourcePoint" />
            <mxPoint x="875" y="330" as="targetPoint" />
          </mxGeometry>
        </mxCell>
        <mxCell id="FgihYTtlnY5JfmEfMLE0-1" style="edgeStyle=orthogonalEdgeStyle;rounded=0;orthogonalLoop=1;jettySize=auto;html=1;" parent="1" source="ItPj21Zff-Ay7ue9UR-A-4" target="FgihYTtlnY5JfmEfMLE0-2" edge="1">
          <mxGeometry relative="1" as="geometry">
            <mxPoint x="875.5" y="430" as="targetPoint" />
          </mxGeometry>
        </mxCell>
        <mxCell id="ItPj21Zff-Ay7ue9UR-A-4" value="&lt;font style=&quot;font-size: 15px;&quot;&gt;Ask User for Name&lt;/font&gt;" style="shape=parallelogram;perimeter=parallelogramPerimeter;whiteSpace=wrap;html=1;fixedSize=1;" parent="1" vertex="1">
          <mxGeometry x="774" y="250" width="205" height="80" as="geometry" />
        </mxCell>
        <mxCell id="FgihYTtlnY5JfmEfMLE0-4" value="" style="edgeStyle=orthogonalEdgeStyle;rounded=0;orthogonalLoop=1;jettySize=auto;html=1;" parent="1" source="FgihYTtlnY5JfmEfMLE0-2" target="FgihYTtlnY5JfmEfMLE0-3" edge="1">
          <mxGeometry relative="1" as="geometry" />
        </mxCell>
        <mxCell id="FgihYTtlnY5JfmEfMLE0-2" value="&lt;font style=&quot;font-size: 16px;&quot;&gt;Create GameLog.csv with player name&lt;/font&gt;" style="rounded=0;whiteSpace=wrap;html=1;" parent="1" vertex="1">
          <mxGeometry x="774" y="400" width="207" height="90" as="geometry" />
        </mxCell>
        <mxCell id="FgihYTtlnY5JfmEfMLE0-50" style="edgeStyle=orthogonalEdgeStyle;rounded=0;orthogonalLoop=1;jettySize=auto;html=1;entryX=0.5;entryY=0;entryDx=0;entryDy=0;" parent="1" source="FgihYTtlnY5JfmEfMLE0-3" target="FgihYTtlnY5JfmEfMLE0-49" edge="1">
          <mxGeometry relative="1" as="geometry" />
        </mxCell>
        <mxCell id="FgihYTtlnY5JfmEfMLE0-122" style="edgeStyle=orthogonalEdgeStyle;rounded=0;orthogonalLoop=1;jettySize=auto;html=1;entryX=1;entryY=0.5;entryDx=0;entryDy=0;" parent="1" source="FgihYTtlnY5JfmEfMLE0-3" target="FgihYTtlnY5JfmEfMLE0-6" edge="1">
          <mxGeometry relative="1" as="geometry" />
        </mxCell>
        <mxCell id="FgihYTtlnY5JfmEfMLE0-3" value="&lt;span style=&quot;font-size: 16px;&quot;&gt;Return Case value function, write shuffled_cases to Gamelog.csv&lt;/span&gt;" style="whiteSpace=wrap;html=1;rounded=0;" parent="1" vertex="1">
          <mxGeometry x="766.25" y="540" width="222.5" height="95" as="geometry" />
        </mxCell>
        <mxCell id="FgihYTtlnY5JfmEfMLE0-13" style="edgeStyle=orthogonalEdgeStyle;rounded=0;orthogonalLoop=1;jettySize=auto;html=1;" parent="1" source="FgihYTtlnY5JfmEfMLE0-6" target="FgihYTtlnY5JfmEfMLE0-14" edge="1">
          <mxGeometry relative="1" as="geometry">
            <mxPoint x="515" y="675" as="targetPoint" />
          </mxGeometry>
        </mxCell>
        <mxCell id="FgihYTtlnY5JfmEfMLE0-6" value="Case Values Function" style="rounded=0;whiteSpace=wrap;html=1;" parent="1" vertex="1">
          <mxGeometry x="440" y="560" width="150" height="55" as="geometry" />
        </mxCell>
        <mxCell id="FgihYTtlnY5JfmEfMLE0-15" style="edgeStyle=orthogonalEdgeStyle;rounded=0;orthogonalLoop=1;jettySize=auto;html=1;" parent="1" source="FgihYTtlnY5JfmEfMLE0-14" target="FgihYTtlnY5JfmEfMLE0-16" edge="1">
          <mxGeometry relative="1" as="geometry">
            <mxPoint x="515" y="745" as="targetPoint" />
          </mxGeometry>
        </mxCell>
        <mxCell id="FgihYTtlnY5JfmEfMLE0-14" value="Create a dictonary to store case numbers &amp;amp; values" style="rounded=0;whiteSpace=wrap;html=1;" parent="1" vertex="1">
          <mxGeometry x="440" y="655" width="150" height="50" as="geometry" />
        </mxCell>
        <mxCell id="FgihYTtlnY5JfmEfMLE0-17" style="edgeStyle=orthogonalEdgeStyle;rounded=0;orthogonalLoop=1;jettySize=auto;html=1;" parent="1" source="FgihYTtlnY5JfmEfMLE0-16" edge="1">
          <mxGeometry relative="1" as="geometry">
            <mxPoint x="515" y="825" as="targetPoint" />
          </mxGeometry>
        </mxCell>
        <mxCell id="FgihYTtlnY5JfmEfMLE0-16" value="Create a list with all values" style="rounded=0;whiteSpace=wrap;html=1;" parent="1" vertex="1">
          <mxGeometry x="440" y="735" width="150" height="50" as="geometry" />
        </mxCell>
        <mxCell id="FgihYTtlnY5JfmEfMLE0-22" value="create new shuffled dictonary with zip method&lt;br&gt;return Shuffled_cases" style="rounded=0;whiteSpace=wrap;html=1;" parent="1" vertex="1">
          <mxGeometry x="440" y="915" width="150" height="80" as="geometry" />
        </mxCell>
        <mxCell id="FgihYTtlnY5JfmEfMLE0-27" style="edgeStyle=orthogonalEdgeStyle;rounded=0;orthogonalLoop=1;jettySize=auto;html=1;entryX=0.5;entryY=0;entryDx=0;entryDy=0;" parent="1" source="FgihYTtlnY5JfmEfMLE0-26" target="FgihYTtlnY5JfmEfMLE0-22" edge="1">
          <mxGeometry relative="1" as="geometry" />
        </mxCell>
        <mxCell id="FgihYTtlnY5JfmEfMLE0-26" value="Shuffle the list values" style="rounded=0;whiteSpace=wrap;html=1;" parent="1" vertex="1">
          <mxGeometry x="440" y="825" width="150" height="50" as="geometry" />
        </mxCell>
        <mxCell id="FgihYTtlnY5JfmEfMLE0-38" value="" style="edgeStyle=orthogonalEdgeStyle;rounded=0;orthogonalLoop=1;jettySize=auto;html=1;" parent="1" source="FgihYTtlnY5JfmEfMLE0-29" target="FgihYTtlnY5JfmEfMLE0-37" edge="1">
          <mxGeometry relative="1" as="geometry" />
        </mxCell>
        <mxCell id="FgihYTtlnY5JfmEfMLE0-29" value="&lt;font style=&quot;font-size: 15px;&quot;&gt;Ask User to pick a case&lt;/font&gt;" style="shape=parallelogram;perimeter=parallelogramPerimeter;whiteSpace=wrap;html=1;fixedSize=1;" parent="1" vertex="1">
          <mxGeometry x="775" y="940" width="205" height="80" as="geometry" />
        </mxCell>
        <mxCell id="FgihYTtlnY5JfmEfMLE0-39" style="edgeStyle=orthogonalEdgeStyle;rounded=0;orthogonalLoop=1;jettySize=auto;html=1;" parent="1" source="FgihYTtlnY5JfmEfMLE0-37" edge="1">
          <mxGeometry relative="1" as="geometry">
            <mxPoint x="877.4949999999999" y="1450" as="targetPoint" />
          </mxGeometry>
        </mxCell>
        <mxCell id="FgihYTtlnY5JfmEfMLE0-42" value="&lt;font style=&quot;font-size: 18px;&quot;&gt;YES&lt;/font&gt;" style="edgeLabel;html=1;align=center;verticalAlign=middle;resizable=0;points=[];" parent="FgihYTtlnY5JfmEfMLE0-39" vertex="1" connectable="0">
          <mxGeometry x="-0.0178" y="1" relative="1" as="geometry">
            <mxPoint x="-1" y="-19" as="offset" />
          </mxGeometry>
        </mxCell>
        <mxCell id="FgihYTtlnY5JfmEfMLE0-40" style="edgeStyle=orthogonalEdgeStyle;rounded=0;orthogonalLoop=1;jettySize=auto;html=1;entryX=0;entryY=0.5;entryDx=0;entryDy=0;" parent="1" source="FgihYTtlnY5JfmEfMLE0-37" target="FgihYTtlnY5JfmEfMLE0-29" edge="1">
          <mxGeometry relative="1" as="geometry">
            <Array as="points">
              <mxPoint x="700" y="1170" />
              <mxPoint x="700" y="980" />
            </Array>
          </mxGeometry>
        </mxCell>
        <mxCell id="FgihYTtlnY5JfmEfMLE0-41" value="&lt;font style=&quot;font-size: 18px;&quot;&gt;NO&lt;/font&gt;" style="edgeLabel;html=1;align=center;verticalAlign=middle;resizable=0;points=[];" parent="FgihYTtlnY5JfmEfMLE0-40" vertex="1" connectable="0">
          <mxGeometry x="-0.1561" relative="1" as="geometry">
            <mxPoint as="offset" />
          </mxGeometry>
        </mxCell>
        <mxCell id="FgihYTtlnY5JfmEfMLE0-37" value="&lt;font style=&quot;font-size: 14px;&quot;&gt;&amp;nbsp; &amp;nbsp;try input == shuffle_cases[key]&lt;/font&gt;" style="rhombus;whiteSpace=wrap;html=1;" parent="1" vertex="1">
          <mxGeometry x="779.06" y="1090" width="196.87" height="160" as="geometry" />
        </mxCell>
        <mxCell id="FgihYTtlnY5JfmEfMLE0-80" style="edgeStyle=orthogonalEdgeStyle;rounded=0;orthogonalLoop=1;jettySize=auto;html=1;" parent="1" source="FgihYTtlnY5JfmEfMLE0-43" target="FgihYTtlnY5JfmEfMLE0-81" edge="1">
          <mxGeometry relative="1" as="geometry">
            <mxPoint x="877.5" y="1550" as="targetPoint" />
          </mxGeometry>
        </mxCell>
        <mxCell id="FgihYTtlnY5JfmEfMLE0-43" value="&lt;span style=&quot;font-size: 16px;&quot;&gt;user_case = shuffle_case[value],&amp;nbsp; &amp;nbsp; &amp;nbsp; &amp;nbsp; &amp;nbsp; &amp;nbsp; add key, value to users Gamelog.csv&lt;/span&gt;" style="whiteSpace=wrap;html=1;rounded=0;" parent="1" vertex="1">
          <mxGeometry x="766.25" y="1400" width="222.5" height="80" as="geometry" />
        </mxCell>
        <mxCell id="FgihYTtlnY5JfmEfMLE0-53" style="edgeStyle=orthogonalEdgeStyle;rounded=0;orthogonalLoop=1;jettySize=auto;html=1;entryX=0.5;entryY=0;entryDx=0;entryDy=0;" parent="1" source="FgihYTtlnY5JfmEfMLE0-49" target="FgihYTtlnY5JfmEfMLE0-29" edge="1">
          <mxGeometry relative="1" as="geometry">
            <mxPoint x="877.5" y="817.5" as="targetPoint" />
          </mxGeometry>
        </mxCell>
        <mxCell id="FgihYTtlnY5JfmEfMLE0-49" value="&lt;span style=&quot;font-size: 16px;&quot;&gt;Create list for values_left&lt;/span&gt;" style="whiteSpace=wrap;html=1;rounded=0;" parent="1" vertex="1">
          <mxGeometry x="766.25" y="680" width="222.5" height="95" as="geometry" />
        </mxCell>
        <mxCell id="FgihYTtlnY5JfmEfMLE0-64" style="edgeStyle=orthogonalEdgeStyle;rounded=0;orthogonalLoop=1;jettySize=auto;html=1;entryX=1;entryY=0.5;entryDx=0;entryDy=0;" parent="1" source="FgihYTtlnY5JfmEfMLE0-60" target="FgihYTtlnY5JfmEfMLE0-63" edge="1">
          <mxGeometry relative="1" as="geometry" />
        </mxCell>
        <mxCell id="FgihYTtlnY5JfmEfMLE0-102" style="edgeStyle=orthogonalEdgeStyle;rounded=0;orthogonalLoop=1;jettySize=auto;html=1;" parent="1" source="FgihYTtlnY5JfmEfMLE0-60" edge="1">
          <mxGeometry relative="1" as="geometry">
            <mxPoint x="879.375" y="2028" as="targetPoint" />
          </mxGeometry>
        </mxCell>
        <mxCell id="FgihYTtlnY5JfmEfMLE0-60" value="&lt;span style=&quot;font-size: 16px;&quot;&gt;Call game function(0)&lt;/span&gt;" style="whiteSpace=wrap;html=1;rounded=0;" parent="1" vertex="1">
          <mxGeometry x="770" y="1810" width="218.75" height="100" as="geometry" />
        </mxCell>
        <mxCell id="FgihYTtlnY5JfmEfMLE0-67" value="" style="edgeStyle=orthogonalEdgeStyle;rounded=0;orthogonalLoop=1;jettySize=auto;html=1;" parent="1" source="FgihYTtlnY5JfmEfMLE0-63" target="FgihYTtlnY5JfmEfMLE0-66" edge="1">
          <mxGeometry relative="1" as="geometry" />
        </mxCell>
        <mxCell id="FgihYTtlnY5JfmEfMLE0-63" value="&lt;span style=&quot;font-size: 16px;&quot;&gt;game(count):&lt;br&gt;&lt;/span&gt;" style="whiteSpace=wrap;html=1;rounded=0;" parent="1" vertex="1">
          <mxGeometry x="312.87" y="1825" width="222.5" height="70" as="geometry" />
        </mxCell>
        <mxCell id="FgihYTtlnY5JfmEfMLE0-71" style="edgeStyle=orthogonalEdgeStyle;rounded=0;orthogonalLoop=1;jettySize=auto;html=1;" parent="1" source="FgihYTtlnY5JfmEfMLE0-123" target="FgihYTtlnY5JfmEfMLE0-70" edge="1">
          <mxGeometry relative="1" as="geometry" />
        </mxCell>
        <mxCell id="FgihYTtlnY5JfmEfMLE0-66" value="Is count &amp;lt;= 6" style="rhombus;whiteSpace=wrap;html=1;rounded=0;" parent="1" vertex="1">
          <mxGeometry x="349.75" y="1970" width="148.75" height="130" as="geometry" />
        </mxCell>
        <mxCell id="FgihYTtlnY5JfmEfMLE0-77" style="edgeStyle=orthogonalEdgeStyle;rounded=0;orthogonalLoop=1;jettySize=auto;html=1;entryX=0.5;entryY=0;entryDx=0;entryDy=0;" parent="1" source="FgihYTtlnY5JfmEfMLE0-70" target="FgihYTtlnY5JfmEfMLE0-76" edge="1">
          <mxGeometry relative="1" as="geometry" />
        </mxCell>
        <mxCell id="FgihYTtlnY5JfmEfMLE0-70" value="&lt;font style=&quot;font-size: 15px;&quot;&gt;Ask User to pick a case&lt;/font&gt;" style="shape=parallelogram;perimeter=parallelogramPerimeter;whiteSpace=wrap;html=1;fixedSize=1;" parent="1" vertex="1">
          <mxGeometry x="326.27" y="2275" width="205" height="80" as="geometry" />
        </mxCell>
        <mxCell id="FgihYTtlnY5JfmEfMLE0-74" style="edgeStyle=orthogonalEdgeStyle;rounded=0;orthogonalLoop=1;jettySize=auto;html=1;entryX=0.972;entryY=0.375;entryDx=0;entryDy=0;entryPerimeter=0;" parent="1" source="FgihYTtlnY5JfmEfMLE0-76" target="FgihYTtlnY5JfmEfMLE0-70" edge="1">
          <mxGeometry relative="1" as="geometry">
            <mxPoint x="332.52" y="2275" as="targetPoint" />
            <Array as="points">
              <mxPoint x="577.52" y="2505" />
              <mxPoint x="577.52" y="2305" />
            </Array>
          </mxGeometry>
        </mxCell>
        <mxCell id="FgihYTtlnY5JfmEfMLE0-75" value="&lt;font style=&quot;font-size: 18px;&quot;&gt;NO&lt;/font&gt;" style="edgeLabel;html=1;align=center;verticalAlign=middle;resizable=0;points=[];" parent="FgihYTtlnY5JfmEfMLE0-74" vertex="1" connectable="0">
          <mxGeometry x="-0.1561" relative="1" as="geometry">
            <mxPoint y="-22" as="offset" />
          </mxGeometry>
        </mxCell>
        <mxCell id="FgihYTtlnY5JfmEfMLE0-82" style="edgeStyle=orthogonalEdgeStyle;rounded=0;orthogonalLoop=1;jettySize=auto;html=1;" parent="1" source="FgihYTtlnY5JfmEfMLE0-76" target="FgihYTtlnY5JfmEfMLE0-83" edge="1">
          <mxGeometry relative="1" as="geometry">
            <mxPoint x="428.7750000000001" y="2695" as="targetPoint" />
          </mxGeometry>
        </mxCell>
        <mxCell id="FgihYTtlnY5JfmEfMLE0-84" value="&lt;font style=&quot;font-size: 18px;&quot;&gt;YES&lt;/font&gt;" style="edgeLabel;html=1;align=center;verticalAlign=middle;resizable=0;points=[];" parent="FgihYTtlnY5JfmEfMLE0-82" vertex="1" connectable="0">
          <mxGeometry x="-0.2667" y="2" relative="1" as="geometry">
            <mxPoint as="offset" />
          </mxGeometry>
        </mxCell>
        <mxCell id="FgihYTtlnY5JfmEfMLE0-76" value="&lt;font style=&quot;font-size: 14px;&quot;&gt;check if input == Shuffled_cases[key]&lt;/font&gt;" style="rhombus;whiteSpace=wrap;html=1;" parent="1" vertex="1">
          <mxGeometry x="330.34000000000003" y="2395" width="196.87" height="220" as="geometry" />
        </mxCell>
        <mxCell id="FgihYTtlnY5JfmEfMLE0-160" style="edgeStyle=orthogonalEdgeStyle;rounded=0;orthogonalLoop=1;jettySize=auto;html=1;entryX=0.5;entryY=0;entryDx=0;entryDy=0;" parent="1" source="FgihYTtlnY5JfmEfMLE0-81" target="FgihYTtlnY5JfmEfMLE0-159" edge="1">
          <mxGeometry relative="1" as="geometry" />
        </mxCell>
        <mxCell id="FgihYTtlnY5JfmEfMLE0-162" value="&lt;font style=&quot;font-size: 18px;&quot;&gt;YES&lt;/font&gt;" style="edgeLabel;html=1;align=center;verticalAlign=middle;resizable=0;points=[];" parent="FgihYTtlnY5JfmEfMLE0-160" vertex="1" connectable="0">
          <mxGeometry x="-0.3738" y="2" relative="1" as="geometry">
            <mxPoint as="offset" />
          </mxGeometry>
        </mxCell>
        <mxCell id="FgihYTtlnY5JfmEfMLE0-364" style="edgeStyle=orthogonalEdgeStyle;rounded=0;orthogonalLoop=1;jettySize=auto;html=1;" parent="1" source="FgihYTtlnY5JfmEfMLE0-81" target="FgihYTtlnY5JfmEfMLE0-365" edge="1">
          <mxGeometry relative="1" as="geometry">
            <mxPoint x="550" y="1640" as="targetPoint" />
          </mxGeometry>
        </mxCell>
        <mxCell id="27x3IcKXGuFFIr86rY-s-1" value="No" style="edgeLabel;html=1;align=center;verticalAlign=middle;resizable=0;points=[];" vertex="1" connectable="0" parent="FgihYTtlnY5JfmEfMLE0-364">
          <mxGeometry x="-0.1259" y="-2" relative="1" as="geometry">
            <mxPoint as="offset" />
          </mxGeometry>
        </mxCell>
        <mxCell id="FgihYTtlnY5JfmEfMLE0-81" value="&lt;font style=&quot;font-size: 18px;&quot;&gt;check If user case in shuffled cases&lt;/font&gt;" style="rhombus;whiteSpace=wrap;html=1;" parent="1" vertex="1">
          <mxGeometry x="721.03" y="1535" width="310.94" height="210" as="geometry" />
        </mxCell>
        <mxCell id="FgihYTtlnY5JfmEfMLE0-90" value="" style="edgeStyle=orthogonalEdgeStyle;rounded=0;orthogonalLoop=1;jettySize=auto;html=1;" parent="1" source="FgihYTtlnY5JfmEfMLE0-83" edge="1">
          <mxGeometry relative="1" as="geometry">
            <mxPoint x="428.7499999999999" y="2795" as="targetPoint" />
          </mxGeometry>
        </mxCell>
        <mxCell id="FgihYTtlnY5JfmEfMLE0-83" value="&lt;font size=&quot;3&quot;&gt;shuffle_cases.pop(key)&amp;nbsp;&lt;/font&gt;" style="rounded=0;whiteSpace=wrap;html=1;" parent="1" vertex="1">
          <mxGeometry x="334.40999999999997" y="2675" width="188.74" height="80" as="geometry" />
        </mxCell>
        <mxCell id="FgihYTtlnY5JfmEfMLE0-92" style="edgeStyle=orthogonalEdgeStyle;rounded=0;orthogonalLoop=1;jettySize=auto;html=1;" parent="1" source="FgihYTtlnY5JfmEfMLE0-91" edge="1">
          <mxGeometry relative="1" as="geometry">
            <mxPoint x="428.7499999999999" y="3095" as="targetPoint" />
          </mxGeometry>
        </mxCell>
        <mxCell id="FgihYTtlnY5JfmEfMLE0-91" value="&lt;font style=&quot;font-size: 14px;&quot;&gt;check if Shuffled cases not in values_left&lt;br&gt;values_left.pop&lt;br&gt;&lt;/font&gt;" style="rhombus;whiteSpace=wrap;html=1;" parent="1" vertex="1">
          <mxGeometry x="273.78" y="2795" width="310" height="250" as="geometry" />
        </mxCell>
        <mxCell id="FgihYTtlnY5JfmEfMLE0-96" style="edgeStyle=orthogonalEdgeStyle;rounded=0;orthogonalLoop=1;jettySize=auto;html=1;entryX=0;entryY=0.5;entryDx=0;entryDy=0;exitX=0.5;exitY=0;exitDx=0;exitDy=0;" parent="1" source="FgihYTtlnY5JfmEfMLE0-101" target="FgihYTtlnY5JfmEfMLE0-66" edge="1">
          <mxGeometry relative="1" as="geometry">
            <mxPoint x="120" y="2510" as="sourcePoint" />
            <Array as="points">
              <mxPoint x="230" y="2035" />
            </Array>
          </mxGeometry>
        </mxCell>
        <mxCell id="FgihYTtlnY5JfmEfMLE0-100" style="edgeStyle=orthogonalEdgeStyle;rounded=0;orthogonalLoop=1;jettySize=auto;html=1;entryX=0.5;entryY=1;entryDx=0;entryDy=0;" parent="1" source="FgihYTtlnY5JfmEfMLE0-94" target="FgihYTtlnY5JfmEfMLE0-101" edge="1">
          <mxGeometry relative="1" as="geometry">
            <mxPoint x="62.32499999999982" y="2640" as="targetPoint" />
            <Array as="points">
              <mxPoint x="230" y="3030" />
              <mxPoint x="230" y="2640" />
            </Array>
          </mxGeometry>
        </mxCell>
        <mxCell id="FgihYTtlnY5JfmEfMLE0-94" value="&lt;font style=&quot;font-size: 18px;&quot;&gt;print(values_left)&lt;br&gt;write to Gamelog.csv&lt;/font&gt;" style="rounded=0;whiteSpace=wrap;html=1;" parent="1" vertex="1">
          <mxGeometry x="304.65" y="3095" width="240" height="110" as="geometry" />
        </mxCell>
        <mxCell id="FgihYTtlnY5JfmEfMLE0-101" value="count += 1" style="rounded=0;whiteSpace=wrap;html=1;" parent="1" vertex="1">
          <mxGeometry x="170.00499999999982" y="2560" width="120" height="60" as="geometry" />
        </mxCell>
        <mxCell id="FgihYTtlnY5JfmEfMLE0-105" style="edgeStyle=orthogonalEdgeStyle;rounded=0;orthogonalLoop=1;jettySize=auto;html=1;entryX=0;entryY=0.5;entryDx=0;entryDy=0;" parent="1" source="FgihYTtlnY5JfmEfMLE0-104" target="FgihYTtlnY5JfmEfMLE0-106" edge="1">
          <mxGeometry relative="1" as="geometry">
            <mxPoint x="1140" y="2065" as="targetPoint" />
            <Array as="points">
              <mxPoint x="1030" y="2065" />
              <mxPoint x="1030" y="1945" />
            </Array>
          </mxGeometry>
        </mxCell>
        <mxCell id="FgihYTtlnY5JfmEfMLE0-112" style="edgeStyle=orthogonalEdgeStyle;rounded=0;orthogonalLoop=1;jettySize=auto;html=1;" parent="1" source="FgihYTtlnY5JfmEfMLE0-104" edge="1">
          <mxGeometry relative="1" as="geometry">
            <mxPoint x="879.4000000000001" y="2170" as="targetPoint" />
          </mxGeometry>
        </mxCell>
        <mxCell id="FgihYTtlnY5JfmEfMLE0-104" value="&lt;span style=&quot;font-size: 16px;&quot;&gt;call Banker_offer function&lt;br&gt;&lt;/span&gt;" style="whiteSpace=wrap;html=1;rounded=0;" parent="1" vertex="1">
          <mxGeometry x="768.13" y="2030" width="222.5" height="70" as="geometry" />
        </mxCell>
        <mxCell id="FgihYTtlnY5JfmEfMLE0-108" value="" style="edgeStyle=orthogonalEdgeStyle;rounded=0;orthogonalLoop=1;jettySize=auto;html=1;entryX=0.494;entryY=0;entryDx=0;entryDy=0;entryPerimeter=0;" parent="1" source="FgihYTtlnY5JfmEfMLE0-106" target="FgihYTtlnY5JfmEfMLE0-109" edge="1">
          <mxGeometry relative="1" as="geometry">
            <mxPoint x="1170.0400000000002" y="2075" as="targetPoint" />
          </mxGeometry>
        </mxCell>
        <mxCell id="FgihYTtlnY5JfmEfMLE0-106" value="&lt;span style=&quot;font-size: 16px;&quot;&gt;Quadratic Mean&lt;br&gt;&lt;/span&gt;" style="whiteSpace=wrap;html=1;rounded=0;" parent="1" vertex="1">
          <mxGeometry x="1058.74" y="1910" width="222.5" height="70" as="geometry" />
        </mxCell>
        <mxCell id="FgihYTtlnY5JfmEfMLE0-109" value="&lt;span style=&quot;font-size: 16px;&quot;&gt;return bankers_offer&lt;br&gt;&lt;/span&gt;" style="whiteSpace=wrap;html=1;rounded=0;" parent="1" vertex="1">
          <mxGeometry x="1060" y="2020" width="222.5" height="70" as="geometry" />
        </mxCell>
        <mxCell id="FgihYTtlnY5JfmEfMLE0-115" style="edgeStyle=orthogonalEdgeStyle;rounded=0;orthogonalLoop=1;jettySize=auto;html=1;entryX=0.5;entryY=0;entryDx=0;entryDy=0;" parent="1" source="FgihYTtlnY5JfmEfMLE0-114" target="FgihYTtlnY5JfmEfMLE0-152" edge="1">
          <mxGeometry relative="1" as="geometry">
            <mxPoint x="876" y="2420" as="targetPoint" />
          </mxGeometry>
        </mxCell>
        <mxCell id="FgihYTtlnY5JfmEfMLE0-117" value="&lt;font style=&quot;font-size: 18px;&quot;&gt;NO&lt;/font&gt;" style="edgeLabel;html=1;align=center;verticalAlign=middle;resizable=0;points=[];" parent="FgihYTtlnY5JfmEfMLE0-115" vertex="1" connectable="0">
          <mxGeometry x="-0.0718" y="-2" relative="1" as="geometry">
            <mxPoint as="offset" />
          </mxGeometry>
        </mxCell>
        <mxCell id="FgihYTtlnY5JfmEfMLE0-118" style="edgeStyle=orthogonalEdgeStyle;rounded=0;orthogonalLoop=1;jettySize=auto;html=1;" parent="1" source="FgihYTtlnY5JfmEfMLE0-114" edge="1">
          <mxGeometry relative="1" as="geometry">
            <mxPoint x="1070" y="2210" as="targetPoint" />
          </mxGeometry>
        </mxCell>
        <mxCell id="FgihYTtlnY5JfmEfMLE0-119" value="&lt;font style=&quot;font-size: 18px;&quot;&gt;YES&lt;/font&gt;" style="edgeLabel;html=1;align=center;verticalAlign=middle;resizable=0;points=[];" parent="FgihYTtlnY5JfmEfMLE0-118" vertex="1" connectable="0">
          <mxGeometry x="0.1789" relative="1" as="geometry">
            <mxPoint x="-1" as="offset" />
          </mxGeometry>
        </mxCell>
        <mxCell id="FgihYTtlnY5JfmEfMLE0-114" value="&lt;font style=&quot;font-size: 15px;&quot;&gt;Check if user accepts banker offer&lt;/font&gt;" style="shape=parallelogram;perimeter=parallelogramPerimeter;whiteSpace=wrap;html=1;fixedSize=1;" parent="1" vertex="1">
          <mxGeometry x="745" y="2170" width="260" height="80" as="geometry" />
        </mxCell>
        <mxCell id="FgihYTtlnY5JfmEfMLE0-130" value="" style="edgeStyle=orthogonalEdgeStyle;rounded=0;orthogonalLoop=1;jettySize=auto;html=1;" parent="1" source="FgihYTtlnY5JfmEfMLE0-120" target="FgihYTtlnY5JfmEfMLE0-129" edge="1">
          <mxGeometry relative="1" as="geometry" />
        </mxCell>
        <mxCell id="FgihYTtlnY5JfmEfMLE0-120" value="&lt;font style=&quot;font-size: 18px;&quot;&gt;call end_game function&lt;/font&gt;" style="rounded=0;whiteSpace=wrap;html=1;" parent="1" vertex="1">
          <mxGeometry x="1070" y="2180" width="160" height="70" as="geometry" />
        </mxCell>
        <mxCell id="FgihYTtlnY5JfmEfMLE0-124" value="" style="edgeStyle=orthogonalEdgeStyle;rounded=0;orthogonalLoop=1;jettySize=auto;html=1;" parent="1" source="FgihYTtlnY5JfmEfMLE0-66" target="FgihYTtlnY5JfmEfMLE0-123" edge="1">
          <mxGeometry relative="1" as="geometry">
            <mxPoint x="424" y="2100" as="sourcePoint" />
            <mxPoint x="424" y="2170" as="targetPoint" />
          </mxGeometry>
        </mxCell>
        <mxCell id="FgihYTtlnY5JfmEfMLE0-123" value="&lt;font size=&quot;3&quot;&gt;print(values_left)&lt;/font&gt;" style="rounded=0;whiteSpace=wrap;html=1;" parent="1" vertex="1">
          <mxGeometry x="330" y="2140" width="188.74" height="80" as="geometry" />
        </mxCell>
        <mxCell id="FgihYTtlnY5JfmEfMLE0-154" style="edgeStyle=orthogonalEdgeStyle;rounded=0;orthogonalLoop=1;jettySize=auto;html=1;" parent="1" source="FgihYTtlnY5JfmEfMLE0-129" target="FgihYTtlnY5JfmEfMLE0-155" edge="1">
          <mxGeometry relative="1" as="geometry">
            <mxPoint x="1150" y="2380" as="targetPoint" />
          </mxGeometry>
        </mxCell>
        <mxCell id="FgihYTtlnY5JfmEfMLE0-129" value="&lt;font style=&quot;font-size: 18px;&quot;&gt;You won banker_offer write to Gamelog.csv&lt;/font&gt;" style="whiteSpace=wrap;html=1;rounded=0;" parent="1" vertex="1">
          <mxGeometry x="1060" y="2280" width="180" height="75" as="geometry" />
        </mxCell>
        <mxCell id="FgihYTtlnY5JfmEfMLE0-131" value="" style="edgeStyle=orthogonalEdgeStyle;rounded=0;orthogonalLoop=1;jettySize=auto;html=1;" parent="1" source="FgihYTtlnY5JfmEfMLE0-132" target="FgihYTtlnY5JfmEfMLE0-134" edge="1">
          <mxGeometry relative="1" as="geometry" />
        </mxCell>
        <mxCell id="FgihYTtlnY5JfmEfMLE0-132" value="&lt;span style=&quot;font-size: 16px;&quot;&gt;game(count):&lt;br&gt;&lt;/span&gt;" style="whiteSpace=wrap;html=1;rounded=0;" parent="1" vertex="1">
          <mxGeometry x="1252.88" y="2460" width="222.5" height="70" as="geometry" />
        </mxCell>
        <mxCell id="FgihYTtlnY5JfmEfMLE0-133" style="edgeStyle=orthogonalEdgeStyle;rounded=0;orthogonalLoop=1;jettySize=auto;html=1;" parent="1" source="FgihYTtlnY5JfmEfMLE0-151" target="FgihYTtlnY5JfmEfMLE0-136" edge="1">
          <mxGeometry relative="1" as="geometry" />
        </mxCell>
        <mxCell id="FgihYTtlnY5JfmEfMLE0-134" value="Is count &amp;lt;= 6" style="rhombus;whiteSpace=wrap;html=1;rounded=0;" parent="1" vertex="1">
          <mxGeometry x="1289.75" y="2585" width="148.75" height="130" as="geometry" />
        </mxCell>
        <mxCell id="FgihYTtlnY5JfmEfMLE0-135" style="edgeStyle=orthogonalEdgeStyle;rounded=0;orthogonalLoop=1;jettySize=auto;html=1;entryX=0.5;entryY=0;entryDx=0;entryDy=0;" parent="1" source="FgihYTtlnY5JfmEfMLE0-136" target="FgihYTtlnY5JfmEfMLE0-141" edge="1">
          <mxGeometry relative="1" as="geometry" />
        </mxCell>
        <mxCell id="FgihYTtlnY5JfmEfMLE0-136" value="&lt;font style=&quot;font-size: 15px;&quot;&gt;Ask User to pick a case&lt;/font&gt;" style="shape=parallelogram;perimeter=parallelogramPerimeter;whiteSpace=wrap;html=1;fixedSize=1;" parent="1" vertex="1">
          <mxGeometry x="1266.27" y="2890" width="205" height="80" as="geometry" />
        </mxCell>
        <mxCell id="FgihYTtlnY5JfmEfMLE0-137" style="edgeStyle=orthogonalEdgeStyle;rounded=0;orthogonalLoop=1;jettySize=auto;html=1;entryX=0.972;entryY=0.375;entryDx=0;entryDy=0;entryPerimeter=0;" parent="1" source="FgihYTtlnY5JfmEfMLE0-141" target="FgihYTtlnY5JfmEfMLE0-136" edge="1">
          <mxGeometry relative="1" as="geometry">
            <mxPoint x="1272.52" y="2890" as="targetPoint" />
            <Array as="points">
              <mxPoint x="1517.52" y="3120" />
              <mxPoint x="1517.52" y="2920" />
            </Array>
          </mxGeometry>
        </mxCell>
        <mxCell id="FgihYTtlnY5JfmEfMLE0-138" value="&lt;font style=&quot;font-size: 18px;&quot;&gt;NO&lt;/font&gt;" style="edgeLabel;html=1;align=center;verticalAlign=middle;resizable=0;points=[];" parent="FgihYTtlnY5JfmEfMLE0-137" vertex="1" connectable="0">
          <mxGeometry x="-0.1561" relative="1" as="geometry">
            <mxPoint y="-22" as="offset" />
          </mxGeometry>
        </mxCell>
        <mxCell id="FgihYTtlnY5JfmEfMLE0-139" style="edgeStyle=orthogonalEdgeStyle;rounded=0;orthogonalLoop=1;jettySize=auto;html=1;" parent="1" source="FgihYTtlnY5JfmEfMLE0-141" target="FgihYTtlnY5JfmEfMLE0-143" edge="1">
          <mxGeometry relative="1" as="geometry">
            <mxPoint x="1368.775" y="3310" as="targetPoint" />
          </mxGeometry>
        </mxCell>
        <mxCell id="FgihYTtlnY5JfmEfMLE0-140" value="&lt;font style=&quot;font-size: 18px;&quot;&gt;YES&lt;/font&gt;" style="edgeLabel;html=1;align=center;verticalAlign=middle;resizable=0;points=[];" parent="FgihYTtlnY5JfmEfMLE0-139" vertex="1" connectable="0">
          <mxGeometry x="-0.2667" y="2" relative="1" as="geometry">
            <mxPoint as="offset" />
          </mxGeometry>
        </mxCell>
        <mxCell id="FgihYTtlnY5JfmEfMLE0-141" value="&lt;font style=&quot;font-size: 14px;&quot;&gt;&amp;nbsp; &amp;nbsp;try input == shuffle_cases[key]&lt;/font&gt;" style="rhombus;whiteSpace=wrap;html=1;" parent="1" vertex="1">
          <mxGeometry x="1270.3400000000001" y="3010" width="196.87" height="220" as="geometry" />
        </mxCell>
        <mxCell id="FgihYTtlnY5JfmEfMLE0-142" value="" style="edgeStyle=orthogonalEdgeStyle;rounded=0;orthogonalLoop=1;jettySize=auto;html=1;" parent="1" source="FgihYTtlnY5JfmEfMLE0-143" edge="1">
          <mxGeometry relative="1" as="geometry">
            <mxPoint x="1368.75" y="3410" as="targetPoint" />
          </mxGeometry>
        </mxCell>
        <mxCell id="FgihYTtlnY5JfmEfMLE0-143" value="&lt;font size=&quot;3&quot;&gt;shuffle_cases.pop(key)&amp;nbsp;&lt;/font&gt;" style="rounded=0;whiteSpace=wrap;html=1;" parent="1" vertex="1">
          <mxGeometry x="1274.4099999999999" y="3290" width="188.74" height="80" as="geometry" />
        </mxCell>
        <mxCell id="FgihYTtlnY5JfmEfMLE0-144" style="edgeStyle=orthogonalEdgeStyle;rounded=0;orthogonalLoop=1;jettySize=auto;html=1;" parent="1" source="FgihYTtlnY5JfmEfMLE0-145" edge="1">
          <mxGeometry relative="1" as="geometry">
            <mxPoint x="1368.75" y="3710" as="targetPoint" />
          </mxGeometry>
        </mxCell>
        <mxCell id="FgihYTtlnY5JfmEfMLE0-145" value="&lt;font style=&quot;font-size: 14px;&quot;&gt;for key, value in value_left.items():&lt;br&gt;if value_left[key] not in shuffle_cases[key]&lt;br&gt;value_left[key].pop&lt;br&gt;&lt;/font&gt;" style="rhombus;whiteSpace=wrap;html=1;" parent="1" vertex="1">
          <mxGeometry x="1230" y="3410" width="278.04" height="250" as="geometry" />
        </mxCell>
        <mxCell id="FgihYTtlnY5JfmEfMLE0-146" style="edgeStyle=orthogonalEdgeStyle;rounded=0;orthogonalLoop=1;jettySize=auto;html=1;entryX=0;entryY=0.5;entryDx=0;entryDy=0;exitX=0.5;exitY=0;exitDx=0;exitDy=0;" parent="1" target="FgihYTtlnY5JfmEfMLE0-134" edge="1">
          <mxGeometry relative="1" as="geometry">
            <mxPoint x="1170.005" y="3175" as="sourcePoint" />
            <Array as="points">
              <mxPoint x="1170" y="2650" />
            </Array>
          </mxGeometry>
        </mxCell>
        <mxCell id="FgihYTtlnY5JfmEfMLE0-147" style="edgeStyle=orthogonalEdgeStyle;rounded=0;orthogonalLoop=1;jettySize=auto;html=1;entryX=0.5;entryY=1;entryDx=0;entryDy=0;" parent="1" source="FgihYTtlnY5JfmEfMLE0-148" target="FgihYTtlnY5JfmEfMLE0-149" edge="1">
          <mxGeometry relative="1" as="geometry">
            <mxPoint x="1170.005" y="3235" as="targetPoint" />
            <Array as="points">
              <mxPoint x="1170" y="3765" />
            </Array>
          </mxGeometry>
        </mxCell>
        <mxCell id="FgihYTtlnY5JfmEfMLE0-148" value="&lt;font style=&quot;font-size: 18px;&quot;&gt;print(values_left)&lt;br&gt;write to Gamelog.csv&lt;/font&gt;" style="rounded=0;whiteSpace=wrap;html=1;" parent="1" vertex="1">
          <mxGeometry x="1244.65" y="3710" width="240" height="110" as="geometry" />
        </mxCell>
        <mxCell id="FgihYTtlnY5JfmEfMLE0-149" value="count += 1" style="rounded=0;whiteSpace=wrap;html=1;" parent="1" vertex="1">
          <mxGeometry x="1109.995" y="3170" width="120" height="60" as="geometry" />
        </mxCell>
        <mxCell id="FgihYTtlnY5JfmEfMLE0-150" value="" style="edgeStyle=orthogonalEdgeStyle;rounded=0;orthogonalLoop=1;jettySize=auto;html=1;" parent="1" source="FgihYTtlnY5JfmEfMLE0-134" target="FgihYTtlnY5JfmEfMLE0-151" edge="1">
          <mxGeometry relative="1" as="geometry">
            <mxPoint x="1364" y="2715" as="sourcePoint" />
            <mxPoint x="1364" y="2785" as="targetPoint" />
          </mxGeometry>
        </mxCell>
        <mxCell id="FgihYTtlnY5JfmEfMLE0-151" value="&lt;font size=&quot;3&quot;&gt;print(values_left)&lt;/font&gt;" style="rounded=0;whiteSpace=wrap;html=1;" parent="1" vertex="1">
          <mxGeometry x="1270" y="2755" width="188.74" height="80" as="geometry" />
        </mxCell>
        <mxCell id="FgihYTtlnY5JfmEfMLE0-153" style="edgeStyle=orthogonalEdgeStyle;rounded=0;orthogonalLoop=1;jettySize=auto;html=1;entryX=0;entryY=0.5;entryDx=0;entryDy=0;" parent="1" source="FgihYTtlnY5JfmEfMLE0-152" target="FgihYTtlnY5JfmEfMLE0-132" edge="1">
          <mxGeometry relative="1" as="geometry">
            <Array as="points">
              <mxPoint x="1080" y="2840" />
              <mxPoint x="1080" y="2495" />
            </Array>
          </mxGeometry>
        </mxCell>
        <mxCell id="FgihYTtlnY5JfmEfMLE0-163" style="edgeStyle=orthogonalEdgeStyle;rounded=0;orthogonalLoop=1;jettySize=auto;html=1;" parent="1" source="FgihYTtlnY5JfmEfMLE0-152" edge="1">
          <mxGeometry relative="1" as="geometry">
            <mxPoint x="875.375" y="3432" as="targetPoint" />
          </mxGeometry>
        </mxCell>
        <mxCell id="FgihYTtlnY5JfmEfMLE0-152" value="&lt;span style=&quot;font-size: 16px;&quot;&gt;Call game function(1)&lt;/span&gt;" style="whiteSpace=wrap;html=1;rounded=0;" parent="1" vertex="1">
          <mxGeometry x="766" y="2790" width="218.75" height="100" as="geometry" />
        </mxCell>
        <mxCell id="FgihYTtlnY5JfmEfMLE0-155" value="print(user_case key and value)" style="rounded=0;whiteSpace=wrap;html=1;" parent="1" vertex="1">
          <mxGeometry x="1060" y="2380" width="180" height="60" as="geometry" />
        </mxCell>
        <mxCell id="FgihYTtlnY5JfmEfMLE0-161" style="edgeStyle=orthogonalEdgeStyle;rounded=0;orthogonalLoop=1;jettySize=auto;html=1;entryX=1;entryY=0.5;entryDx=0;entryDy=0;" parent="1" source="FgihYTtlnY5JfmEfMLE0-159" target="FgihYTtlnY5JfmEfMLE0-60" edge="1">
          <mxGeometry relative="1" as="geometry">
            <Array as="points">
              <mxPoint x="1110" y="1860" />
            </Array>
          </mxGeometry>
        </mxCell>
        <mxCell id="FgihYTtlnY5JfmEfMLE0-159" value="&lt;font style=&quot;font-size: 18px;&quot;&gt;shuffled cases.pop&lt;/font&gt;" style="rounded=0;whiteSpace=wrap;html=1;" parent="1" vertex="1">
          <mxGeometry x="1050" y="1730" width="120" height="60" as="geometry" />
        </mxCell>
        <mxCell id="FgihYTtlnY5JfmEfMLE0-171" style="edgeStyle=orthogonalEdgeStyle;rounded=0;orthogonalLoop=1;jettySize=auto;html=1;entryX=1;entryY=0.5;entryDx=0;entryDy=0;" parent="1" source="FgihYTtlnY5JfmEfMLE0-164" target="FgihYTtlnY5JfmEfMLE0-166" edge="1">
          <mxGeometry relative="1" as="geometry" />
        </mxCell>
        <mxCell id="FgihYTtlnY5JfmEfMLE0-173" value="&lt;font style=&quot;font-size: 18px;&quot;&gt;YES&lt;/font&gt;" style="edgeLabel;html=1;align=center;verticalAlign=middle;resizable=0;points=[];" parent="FgihYTtlnY5JfmEfMLE0-171" vertex="1" connectable="0">
          <mxGeometry x="0.1" y="-1" relative="1" as="geometry">
            <mxPoint x="1" as="offset" />
          </mxGeometry>
        </mxCell>
        <mxCell id="FgihYTtlnY5JfmEfMLE0-164" value="&lt;font style=&quot;font-size: 15px;&quot;&gt;Check if user accepts banker offer&lt;/font&gt;" style="shape=parallelogram;perimeter=parallelogramPerimeter;whiteSpace=wrap;html=1;fixedSize=1;" parent="1" vertex="1">
          <mxGeometry x="745" y="3430" width="260" height="80" as="geometry" />
        </mxCell>
        <mxCell id="FgihYTtlnY5JfmEfMLE0-165" value="" style="edgeStyle=orthogonalEdgeStyle;rounded=0;orthogonalLoop=1;jettySize=auto;html=1;" parent="1" source="FgihYTtlnY5JfmEfMLE0-166" target="FgihYTtlnY5JfmEfMLE0-168" edge="1">
          <mxGeometry relative="1" as="geometry" />
        </mxCell>
        <mxCell id="FgihYTtlnY5JfmEfMLE0-166" value="&lt;font style=&quot;font-size: 18px;&quot;&gt;call end_game function&lt;/font&gt;" style="rounded=0;whiteSpace=wrap;html=1;" parent="1" vertex="1">
          <mxGeometry x="450" y="3430" width="160" height="70" as="geometry" />
        </mxCell>
        <mxCell id="FgihYTtlnY5JfmEfMLE0-167" style="edgeStyle=orthogonalEdgeStyle;rounded=0;orthogonalLoop=1;jettySize=auto;html=1;" parent="1" source="FgihYTtlnY5JfmEfMLE0-168" target="FgihYTtlnY5JfmEfMLE0-169" edge="1">
          <mxGeometry relative="1" as="geometry">
            <mxPoint x="530" y="3630" as="targetPoint" />
          </mxGeometry>
        </mxCell>
        <mxCell id="FgihYTtlnY5JfmEfMLE0-168" value="&lt;font style=&quot;font-size: 18px;&quot;&gt;You won banker_offer write to Gamelog.csv&lt;/font&gt;" style="whiteSpace=wrap;html=1;rounded=0;" parent="1" vertex="1">
          <mxGeometry x="440" y="3530" width="180" height="75" as="geometry" />
        </mxCell>
        <mxCell id="FgihYTtlnY5JfmEfMLE0-169" value="print(user_case key and value)" style="rounded=0;whiteSpace=wrap;html=1;" parent="1" vertex="1">
          <mxGeometry x="440" y="3630" width="180" height="60" as="geometry" />
        </mxCell>
        <mxCell id="FgihYTtlnY5JfmEfMLE0-174" style="edgeStyle=orthogonalEdgeStyle;rounded=0;orthogonalLoop=1;jettySize=auto;html=1;entryX=0.5;entryY=0;entryDx=0;entryDy=0;" parent="1" target="FgihYTtlnY5JfmEfMLE0-176" edge="1">
          <mxGeometry relative="1" as="geometry">
            <mxPoint x="874.06" y="3680" as="targetPoint" />
            <mxPoint x="873.06" y="3510" as="sourcePoint" />
          </mxGeometry>
        </mxCell>
        <mxCell id="FgihYTtlnY5JfmEfMLE0-175" value="&lt;font style=&quot;font-size: 18px;&quot;&gt;NO&lt;/font&gt;" style="edgeLabel;html=1;align=center;verticalAlign=middle;resizable=0;points=[];" parent="FgihYTtlnY5JfmEfMLE0-174" vertex="1" connectable="0">
          <mxGeometry x="-0.0718" y="-2" relative="1" as="geometry">
            <mxPoint as="offset" />
          </mxGeometry>
        </mxCell>
        <mxCell id="FgihYTtlnY5JfmEfMLE0-198" style="edgeStyle=orthogonalEdgeStyle;rounded=0;orthogonalLoop=1;jettySize=auto;html=1;entryX=1;entryY=0.5;entryDx=0;entryDy=0;" parent="1" source="FgihYTtlnY5JfmEfMLE0-176" target="FgihYTtlnY5JfmEfMLE0-178" edge="1">
          <mxGeometry relative="1" as="geometry" />
        </mxCell>
        <mxCell id="FgihYTtlnY5JfmEfMLE0-207" style="edgeStyle=orthogonalEdgeStyle;rounded=0;orthogonalLoop=1;jettySize=auto;html=1;entryX=0.5;entryY=0;entryDx=0;entryDy=0;" parent="1" source="FgihYTtlnY5JfmEfMLE0-176" target="FgihYTtlnY5JfmEfMLE0-201" edge="1">
          <mxGeometry relative="1" as="geometry" />
        </mxCell>
        <mxCell id="FgihYTtlnY5JfmEfMLE0-176" value="&lt;span style=&quot;font-size: 16px;&quot;&gt;Call game function(2)&lt;/span&gt;" style="whiteSpace=wrap;html=1;rounded=0;" parent="1" vertex="1">
          <mxGeometry x="768.12" y="3765" width="218.75" height="100" as="geometry" />
        </mxCell>
        <mxCell id="FgihYTtlnY5JfmEfMLE0-177" value="" style="edgeStyle=orthogonalEdgeStyle;rounded=0;orthogonalLoop=1;jettySize=auto;html=1;" parent="1" source="FgihYTtlnY5JfmEfMLE0-178" target="FgihYTtlnY5JfmEfMLE0-180" edge="1">
          <mxGeometry relative="1" as="geometry" />
        </mxCell>
        <mxCell id="FgihYTtlnY5JfmEfMLE0-178" value="&lt;span style=&quot;font-size: 16px;&quot;&gt;game(count):&lt;br&gt;&lt;/span&gt;" style="whiteSpace=wrap;html=1;rounded=0;" parent="1" vertex="1">
          <mxGeometry x="402.87" y="3780" width="222.5" height="70" as="geometry" />
        </mxCell>
        <mxCell id="FgihYTtlnY5JfmEfMLE0-179" style="edgeStyle=orthogonalEdgeStyle;rounded=0;orthogonalLoop=1;jettySize=auto;html=1;" parent="1" source="FgihYTtlnY5JfmEfMLE0-197" target="FgihYTtlnY5JfmEfMLE0-182" edge="1">
          <mxGeometry relative="1" as="geometry" />
        </mxCell>
        <mxCell id="FgihYTtlnY5JfmEfMLE0-180" value="Is count &amp;lt;= 6" style="rhombus;whiteSpace=wrap;html=1;rounded=0;" parent="1" vertex="1">
          <mxGeometry x="439.75" y="3925" width="148.75" height="130" as="geometry" />
        </mxCell>
        <mxCell id="FgihYTtlnY5JfmEfMLE0-181" style="edgeStyle=orthogonalEdgeStyle;rounded=0;orthogonalLoop=1;jettySize=auto;html=1;entryX=0.5;entryY=0;entryDx=0;entryDy=0;" parent="1" source="FgihYTtlnY5JfmEfMLE0-182" target="FgihYTtlnY5JfmEfMLE0-187" edge="1">
          <mxGeometry relative="1" as="geometry" />
        </mxCell>
        <mxCell id="FgihYTtlnY5JfmEfMLE0-182" value="&lt;font style=&quot;font-size: 15px;&quot;&gt;Ask User to pick a case&lt;/font&gt;" style="shape=parallelogram;perimeter=parallelogramPerimeter;whiteSpace=wrap;html=1;fixedSize=1;" parent="1" vertex="1">
          <mxGeometry x="416.27" y="4230" width="205" height="80" as="geometry" />
        </mxCell>
        <mxCell id="FgihYTtlnY5JfmEfMLE0-183" style="edgeStyle=orthogonalEdgeStyle;rounded=0;orthogonalLoop=1;jettySize=auto;html=1;entryX=0.972;entryY=0.375;entryDx=0;entryDy=0;entryPerimeter=0;" parent="1" source="FgihYTtlnY5JfmEfMLE0-187" target="FgihYTtlnY5JfmEfMLE0-182" edge="1">
          <mxGeometry relative="1" as="geometry">
            <mxPoint x="422.52" y="4230" as="targetPoint" />
            <Array as="points">
              <mxPoint x="667.52" y="4460" />
              <mxPoint x="667.52" y="4260" />
            </Array>
          </mxGeometry>
        </mxCell>
        <mxCell id="FgihYTtlnY5JfmEfMLE0-184" value="&lt;font style=&quot;font-size: 18px;&quot;&gt;NO&lt;/font&gt;" style="edgeLabel;html=1;align=center;verticalAlign=middle;resizable=0;points=[];" parent="FgihYTtlnY5JfmEfMLE0-183" vertex="1" connectable="0">
          <mxGeometry x="-0.1561" relative="1" as="geometry">
            <mxPoint y="-22" as="offset" />
          </mxGeometry>
        </mxCell>
        <mxCell id="FgihYTtlnY5JfmEfMLE0-185" style="edgeStyle=orthogonalEdgeStyle;rounded=0;orthogonalLoop=1;jettySize=auto;html=1;" parent="1" source="FgihYTtlnY5JfmEfMLE0-187" target="FgihYTtlnY5JfmEfMLE0-189" edge="1">
          <mxGeometry relative="1" as="geometry">
            <mxPoint x="518.7750000000001" y="4650" as="targetPoint" />
          </mxGeometry>
        </mxCell>
        <mxCell id="FgihYTtlnY5JfmEfMLE0-186" value="&lt;font style=&quot;font-size: 18px;&quot;&gt;YES&lt;/font&gt;" style="edgeLabel;html=1;align=center;verticalAlign=middle;resizable=0;points=[];" parent="FgihYTtlnY5JfmEfMLE0-185" vertex="1" connectable="0">
          <mxGeometry x="-0.2667" y="2" relative="1" as="geometry">
            <mxPoint as="offset" />
          </mxGeometry>
        </mxCell>
        <mxCell id="FgihYTtlnY5JfmEfMLE0-187" value="&lt;font style=&quot;font-size: 14px;&quot;&gt;check if input == Shuffled_cases[key]&lt;/font&gt;" style="rhombus;whiteSpace=wrap;html=1;" parent="1" vertex="1">
          <mxGeometry x="420.34000000000003" y="4350" width="196.87" height="220" as="geometry" />
        </mxCell>
        <mxCell id="FgihYTtlnY5JfmEfMLE0-188" value="" style="edgeStyle=orthogonalEdgeStyle;rounded=0;orthogonalLoop=1;jettySize=auto;html=1;" parent="1" source="FgihYTtlnY5JfmEfMLE0-189" edge="1">
          <mxGeometry relative="1" as="geometry">
            <mxPoint x="518.7499999999999" y="4750" as="targetPoint" />
          </mxGeometry>
        </mxCell>
        <mxCell id="FgihYTtlnY5JfmEfMLE0-189" value="&lt;font size=&quot;3&quot;&gt;shuffle_cases.pop(key)&amp;nbsp;&lt;/font&gt;" style="rounded=0;whiteSpace=wrap;html=1;" parent="1" vertex="1">
          <mxGeometry x="424.40999999999997" y="4630" width="188.74" height="80" as="geometry" />
        </mxCell>
        <mxCell id="FgihYTtlnY5JfmEfMLE0-190" style="edgeStyle=orthogonalEdgeStyle;rounded=0;orthogonalLoop=1;jettySize=auto;html=1;" parent="1" source="FgihYTtlnY5JfmEfMLE0-191" edge="1">
          <mxGeometry relative="1" as="geometry">
            <mxPoint x="518.7499999999999" y="5050" as="targetPoint" />
          </mxGeometry>
        </mxCell>
        <mxCell id="FgihYTtlnY5JfmEfMLE0-191" value="&lt;font style=&quot;font-size: 14px;&quot;&gt;check if Shuffled cases not in values_left&lt;br&gt;values_left.pop&lt;br&gt;&lt;/font&gt;" style="rhombus;whiteSpace=wrap;html=1;" parent="1" vertex="1">
          <mxGeometry x="363.78" y="4750" width="310" height="250" as="geometry" />
        </mxCell>
        <mxCell id="FgihYTtlnY5JfmEfMLE0-192" style="edgeStyle=orthogonalEdgeStyle;rounded=0;orthogonalLoop=1;jettySize=auto;html=1;entryX=0;entryY=0.5;entryDx=0;entryDy=0;exitX=0.5;exitY=0;exitDx=0;exitDy=0;" parent="1" source="FgihYTtlnY5JfmEfMLE0-195" target="FgihYTtlnY5JfmEfMLE0-180" edge="1">
          <mxGeometry relative="1" as="geometry">
            <mxPoint x="210" y="4465" as="sourcePoint" />
            <Array as="points">
              <mxPoint x="320" y="3990" />
            </Array>
          </mxGeometry>
        </mxCell>
        <mxCell id="FgihYTtlnY5JfmEfMLE0-193" style="edgeStyle=orthogonalEdgeStyle;rounded=0;orthogonalLoop=1;jettySize=auto;html=1;entryX=0.5;entryY=1;entryDx=0;entryDy=0;" parent="1" source="FgihYTtlnY5JfmEfMLE0-194" target="FgihYTtlnY5JfmEfMLE0-195" edge="1">
          <mxGeometry relative="1" as="geometry">
            <mxPoint x="152.32499999999982" y="4595" as="targetPoint" />
            <Array as="points">
              <mxPoint x="320" y="4985" />
              <mxPoint x="320" y="4595" />
            </Array>
          </mxGeometry>
        </mxCell>
        <mxCell id="FgihYTtlnY5JfmEfMLE0-194" value="&lt;font style=&quot;font-size: 18px;&quot;&gt;print(values_left)&lt;br&gt;write to Gamelog.csv&lt;/font&gt;" style="rounded=0;whiteSpace=wrap;html=1;" parent="1" vertex="1">
          <mxGeometry x="394.65" y="5050" width="240" height="110" as="geometry" />
        </mxCell>
        <mxCell id="FgihYTtlnY5JfmEfMLE0-195" value="count += 1" style="rounded=0;whiteSpace=wrap;html=1;" parent="1" vertex="1">
          <mxGeometry x="260.0049999999998" y="4515" width="120" height="60" as="geometry" />
        </mxCell>
        <mxCell id="FgihYTtlnY5JfmEfMLE0-196" value="" style="edgeStyle=orthogonalEdgeStyle;rounded=0;orthogonalLoop=1;jettySize=auto;html=1;" parent="1" source="FgihYTtlnY5JfmEfMLE0-180" target="FgihYTtlnY5JfmEfMLE0-197" edge="1">
          <mxGeometry relative="1" as="geometry">
            <mxPoint x="514" y="4055" as="sourcePoint" />
            <mxPoint x="514" y="4125" as="targetPoint" />
          </mxGeometry>
        </mxCell>
        <mxCell id="FgihYTtlnY5JfmEfMLE0-197" value="&lt;font size=&quot;3&quot;&gt;print(values_left)&lt;/font&gt;" style="rounded=0;whiteSpace=wrap;html=1;" parent="1" vertex="1">
          <mxGeometry x="420" y="4095" width="188.74" height="80" as="geometry" />
        </mxCell>
        <mxCell id="FgihYTtlnY5JfmEfMLE0-199" style="edgeStyle=orthogonalEdgeStyle;rounded=0;orthogonalLoop=1;jettySize=auto;html=1;" parent="1" source="FgihYTtlnY5JfmEfMLE0-201" edge="1">
          <mxGeometry relative="1" as="geometry">
            <mxPoint x="1070" y="4030" as="targetPoint" />
          </mxGeometry>
        </mxCell>
        <mxCell id="FgihYTtlnY5JfmEfMLE0-200" value="&lt;font style=&quot;font-size: 18px;&quot;&gt;YES&lt;/font&gt;" style="edgeLabel;html=1;align=center;verticalAlign=middle;resizable=0;points=[];" parent="FgihYTtlnY5JfmEfMLE0-199" vertex="1" connectable="0">
          <mxGeometry x="0.1789" relative="1" as="geometry">
            <mxPoint x="-1" as="offset" />
          </mxGeometry>
        </mxCell>
        <mxCell id="FgihYTtlnY5JfmEfMLE0-201" value="&lt;font style=&quot;font-size: 15px;&quot;&gt;Check if user accepts banker offer&lt;/font&gt;" style="shape=parallelogram;perimeter=parallelogramPerimeter;whiteSpace=wrap;html=1;fixedSize=1;" parent="1" vertex="1">
          <mxGeometry x="745" y="3990" width="260" height="80" as="geometry" />
        </mxCell>
        <mxCell id="FgihYTtlnY5JfmEfMLE0-202" value="" style="edgeStyle=orthogonalEdgeStyle;rounded=0;orthogonalLoop=1;jettySize=auto;html=1;" parent="1" source="FgihYTtlnY5JfmEfMLE0-203" target="FgihYTtlnY5JfmEfMLE0-205" edge="1">
          <mxGeometry relative="1" as="geometry" />
        </mxCell>
        <mxCell id="FgihYTtlnY5JfmEfMLE0-203" value="&lt;font style=&quot;font-size: 18px;&quot;&gt;call end_game function&lt;/font&gt;" style="rounded=0;whiteSpace=wrap;html=1;" parent="1" vertex="1">
          <mxGeometry x="1070" y="4000" width="160" height="70" as="geometry" />
        </mxCell>
        <mxCell id="FgihYTtlnY5JfmEfMLE0-204" style="edgeStyle=orthogonalEdgeStyle;rounded=0;orthogonalLoop=1;jettySize=auto;html=1;" parent="1" source="FgihYTtlnY5JfmEfMLE0-205" target="FgihYTtlnY5JfmEfMLE0-206" edge="1">
          <mxGeometry relative="1" as="geometry">
            <mxPoint x="1150" y="4200" as="targetPoint" />
          </mxGeometry>
        </mxCell>
        <mxCell id="FgihYTtlnY5JfmEfMLE0-205" value="&lt;font style=&quot;font-size: 18px;&quot;&gt;You won banker_offer write to Gamelog.csv&lt;/font&gt;" style="whiteSpace=wrap;html=1;rounded=0;" parent="1" vertex="1">
          <mxGeometry x="1060" y="4100" width="180" height="75" as="geometry" />
        </mxCell>
        <mxCell id="FgihYTtlnY5JfmEfMLE0-206" value="print(user_case key and value)" style="rounded=0;whiteSpace=wrap;html=1;" parent="1" vertex="1">
          <mxGeometry x="1060" y="4200" width="180" height="60" as="geometry" />
        </mxCell>
        <mxCell id="FgihYTtlnY5JfmEfMLE0-208" style="edgeStyle=orthogonalEdgeStyle;rounded=0;orthogonalLoop=1;jettySize=auto;html=1;entryX=0.5;entryY=0;entryDx=0;entryDy=0;" parent="1" target="FgihYTtlnY5JfmEfMLE0-210" edge="1">
          <mxGeometry relative="1" as="geometry">
            <mxPoint x="878.1300000000001" y="4240" as="targetPoint" />
            <mxPoint x="877.1300000000001" y="4070" as="sourcePoint" />
          </mxGeometry>
        </mxCell>
        <mxCell id="FgihYTtlnY5JfmEfMLE0-209" value="&lt;font style=&quot;font-size: 18px;&quot;&gt;NO&lt;/font&gt;" style="edgeLabel;html=1;align=center;verticalAlign=middle;resizable=0;points=[];" parent="FgihYTtlnY5JfmEfMLE0-208" vertex="1" connectable="0">
          <mxGeometry x="-0.0718" y="-2" relative="1" as="geometry">
            <mxPoint as="offset" />
          </mxGeometry>
        </mxCell>
        <mxCell id="FgihYTtlnY5JfmEfMLE0-232" style="edgeStyle=orthogonalEdgeStyle;rounded=0;orthogonalLoop=1;jettySize=auto;html=1;entryX=0;entryY=0.5;entryDx=0;entryDy=0;" parent="1" source="FgihYTtlnY5JfmEfMLE0-210" target="FgihYTtlnY5JfmEfMLE0-212" edge="1">
          <mxGeometry relative="1" as="geometry" />
        </mxCell>
        <mxCell id="FgihYTtlnY5JfmEfMLE0-210" value="&lt;span style=&quot;font-size: 16px;&quot;&gt;Call game function(3)&lt;/span&gt;" style="whiteSpace=wrap;html=1;rounded=0;" parent="1" vertex="1">
          <mxGeometry x="772.19" y="4325" width="218.75" height="100" as="geometry" />
        </mxCell>
        <mxCell id="FgihYTtlnY5JfmEfMLE0-211" value="" style="edgeStyle=orthogonalEdgeStyle;rounded=0;orthogonalLoop=1;jettySize=auto;html=1;" parent="1" source="FgihYTtlnY5JfmEfMLE0-212" target="FgihYTtlnY5JfmEfMLE0-214" edge="1">
          <mxGeometry relative="1" as="geometry" />
        </mxCell>
        <mxCell id="FgihYTtlnY5JfmEfMLE0-212" value="&lt;span style=&quot;font-size: 16px;&quot;&gt;game(count):&lt;br&gt;&lt;/span&gt;" style="whiteSpace=wrap;html=1;rounded=0;" parent="1" vertex="1">
          <mxGeometry x="1202.53" y="4340" width="222.5" height="70" as="geometry" />
        </mxCell>
        <mxCell id="FgihYTtlnY5JfmEfMLE0-213" style="edgeStyle=orthogonalEdgeStyle;rounded=0;orthogonalLoop=1;jettySize=auto;html=1;" parent="1" source="FgihYTtlnY5JfmEfMLE0-231" target="FgihYTtlnY5JfmEfMLE0-216" edge="1">
          <mxGeometry relative="1" as="geometry" />
        </mxCell>
        <mxCell id="FgihYTtlnY5JfmEfMLE0-214" value="Is count &amp;lt;= 6" style="rhombus;whiteSpace=wrap;html=1;rounded=0;" parent="1" vertex="1">
          <mxGeometry x="1239.4" y="4465" width="148.75" height="130" as="geometry" />
        </mxCell>
        <mxCell id="FgihYTtlnY5JfmEfMLE0-215" style="edgeStyle=orthogonalEdgeStyle;rounded=0;orthogonalLoop=1;jettySize=auto;html=1;entryX=0.5;entryY=0;entryDx=0;entryDy=0;" parent="1" source="FgihYTtlnY5JfmEfMLE0-216" target="FgihYTtlnY5JfmEfMLE0-221" edge="1">
          <mxGeometry relative="1" as="geometry" />
        </mxCell>
        <mxCell id="FgihYTtlnY5JfmEfMLE0-216" value="&lt;font style=&quot;font-size: 15px;&quot;&gt;Ask User to pick a case&lt;/font&gt;" style="shape=parallelogram;perimeter=parallelogramPerimeter;whiteSpace=wrap;html=1;fixedSize=1;" parent="1" vertex="1">
          <mxGeometry x="1215.92" y="4770" width="205" height="80" as="geometry" />
        </mxCell>
        <mxCell id="FgihYTtlnY5JfmEfMLE0-217" style="edgeStyle=orthogonalEdgeStyle;rounded=0;orthogonalLoop=1;jettySize=auto;html=1;entryX=0.972;entryY=0.375;entryDx=0;entryDy=0;entryPerimeter=0;" parent="1" source="FgihYTtlnY5JfmEfMLE0-221" target="FgihYTtlnY5JfmEfMLE0-216" edge="1">
          <mxGeometry relative="1" as="geometry">
            <mxPoint x="1222.17" y="4770" as="targetPoint" />
            <Array as="points">
              <mxPoint x="1467.17" y="5000" />
              <mxPoint x="1467.17" y="4800" />
            </Array>
          </mxGeometry>
        </mxCell>
        <mxCell id="FgihYTtlnY5JfmEfMLE0-218" value="&lt;font style=&quot;font-size: 18px;&quot;&gt;NO&lt;/font&gt;" style="edgeLabel;html=1;align=center;verticalAlign=middle;resizable=0;points=[];" parent="FgihYTtlnY5JfmEfMLE0-217" vertex="1" connectable="0">
          <mxGeometry x="-0.1561" relative="1" as="geometry">
            <mxPoint y="-22" as="offset" />
          </mxGeometry>
        </mxCell>
        <mxCell id="FgihYTtlnY5JfmEfMLE0-219" style="edgeStyle=orthogonalEdgeStyle;rounded=0;orthogonalLoop=1;jettySize=auto;html=1;" parent="1" source="FgihYTtlnY5JfmEfMLE0-221" target="FgihYTtlnY5JfmEfMLE0-223" edge="1">
          <mxGeometry relative="1" as="geometry">
            <mxPoint x="1318.4250000000002" y="5190" as="targetPoint" />
          </mxGeometry>
        </mxCell>
        <mxCell id="FgihYTtlnY5JfmEfMLE0-220" value="&lt;font style=&quot;font-size: 18px;&quot;&gt;YES&lt;/font&gt;" style="edgeLabel;html=1;align=center;verticalAlign=middle;resizable=0;points=[];" parent="FgihYTtlnY5JfmEfMLE0-219" vertex="1" connectable="0">
          <mxGeometry x="-0.2667" y="2" relative="1" as="geometry">
            <mxPoint as="offset" />
          </mxGeometry>
        </mxCell>
        <mxCell id="FgihYTtlnY5JfmEfMLE0-221" value="&lt;font style=&quot;font-size: 14px;&quot;&gt;&amp;nbsp; &amp;nbsp;try input == shuffle_cases[key]&lt;/font&gt;" style="rhombus;whiteSpace=wrap;html=1;" parent="1" vertex="1">
          <mxGeometry x="1219.99" y="4890" width="196.87" height="220" as="geometry" />
        </mxCell>
        <mxCell id="FgihYTtlnY5JfmEfMLE0-222" value="" style="edgeStyle=orthogonalEdgeStyle;rounded=0;orthogonalLoop=1;jettySize=auto;html=1;" parent="1" source="FgihYTtlnY5JfmEfMLE0-223" edge="1">
          <mxGeometry relative="1" as="geometry">
            <mxPoint x="1318.3999999999999" y="5290" as="targetPoint" />
          </mxGeometry>
        </mxCell>
        <mxCell id="FgihYTtlnY5JfmEfMLE0-223" value="&lt;font size=&quot;3&quot;&gt;shuffle_cases.pop(key)&amp;nbsp;&lt;/font&gt;" style="rounded=0;whiteSpace=wrap;html=1;" parent="1" vertex="1">
          <mxGeometry x="1224.06" y="5170" width="188.74" height="80" as="geometry" />
        </mxCell>
        <mxCell id="FgihYTtlnY5JfmEfMLE0-224" style="edgeStyle=orthogonalEdgeStyle;rounded=0;orthogonalLoop=1;jettySize=auto;html=1;" parent="1" source="FgihYTtlnY5JfmEfMLE0-225" edge="1">
          <mxGeometry relative="1" as="geometry">
            <mxPoint x="1318.3999999999999" y="5590" as="targetPoint" />
          </mxGeometry>
        </mxCell>
        <mxCell id="FgihYTtlnY5JfmEfMLE0-225" value="&lt;font style=&quot;font-size: 14px;&quot;&gt;for key, value in value_left.items():&lt;br&gt;if value_left[key] not in shuffle_cases[key]&lt;br&gt;value_left[key].pop&lt;br&gt;&lt;/font&gt;" style="rhombus;whiteSpace=wrap;html=1;" parent="1" vertex="1">
          <mxGeometry x="1179.65" y="5290" width="278.04" height="250" as="geometry" />
        </mxCell>
        <mxCell id="FgihYTtlnY5JfmEfMLE0-226" style="edgeStyle=orthogonalEdgeStyle;rounded=0;orthogonalLoop=1;jettySize=auto;html=1;entryX=0;entryY=0.5;entryDx=0;entryDy=0;exitX=0.5;exitY=0;exitDx=0;exitDy=0;" parent="1" target="FgihYTtlnY5JfmEfMLE0-214" edge="1">
          <mxGeometry relative="1" as="geometry">
            <mxPoint x="1119.6550000000002" y="5055" as="sourcePoint" />
            <Array as="points">
              <mxPoint x="1119.65" y="4530" />
            </Array>
          </mxGeometry>
        </mxCell>
        <mxCell id="FgihYTtlnY5JfmEfMLE0-227" style="edgeStyle=orthogonalEdgeStyle;rounded=0;orthogonalLoop=1;jettySize=auto;html=1;entryX=0.5;entryY=1;entryDx=0;entryDy=0;" parent="1" source="FgihYTtlnY5JfmEfMLE0-228" target="FgihYTtlnY5JfmEfMLE0-229" edge="1">
          <mxGeometry relative="1" as="geometry">
            <mxPoint x="1119.6550000000002" y="5115" as="targetPoint" />
            <Array as="points">
              <mxPoint x="1119.65" y="5645" />
            </Array>
          </mxGeometry>
        </mxCell>
        <mxCell id="FgihYTtlnY5JfmEfMLE0-228" value="&lt;font style=&quot;font-size: 18px;&quot;&gt;print(values_left)&lt;br&gt;write to Gamelog.csv&lt;/font&gt;" style="rounded=0;whiteSpace=wrap;html=1;" parent="1" vertex="1">
          <mxGeometry x="1194.3" y="5590" width="240" height="110" as="geometry" />
        </mxCell>
        <mxCell id="FgihYTtlnY5JfmEfMLE0-229" value="count += 1" style="rounded=0;whiteSpace=wrap;html=1;" parent="1" vertex="1">
          <mxGeometry x="1059.645" y="5050" width="120" height="60" as="geometry" />
        </mxCell>
        <mxCell id="FgihYTtlnY5JfmEfMLE0-230" value="" style="edgeStyle=orthogonalEdgeStyle;rounded=0;orthogonalLoop=1;jettySize=auto;html=1;" parent="1" source="FgihYTtlnY5JfmEfMLE0-214" target="FgihYTtlnY5JfmEfMLE0-231" edge="1">
          <mxGeometry relative="1" as="geometry">
            <mxPoint x="1313.65" y="4595" as="sourcePoint" />
            <mxPoint x="1313.65" y="4665" as="targetPoint" />
          </mxGeometry>
        </mxCell>
        <mxCell id="FgihYTtlnY5JfmEfMLE0-231" value="&lt;font size=&quot;3&quot;&gt;print(values_left)&lt;/font&gt;" style="rounded=0;whiteSpace=wrap;html=1;" parent="1" vertex="1">
          <mxGeometry x="1219.65" y="4635" width="188.74" height="80" as="geometry" />
        </mxCell>
        <mxCell id="FgihYTtlnY5JfmEfMLE0-234" style="edgeStyle=orthogonalEdgeStyle;rounded=0;orthogonalLoop=1;jettySize=auto;html=1;entryX=1;entryY=0.5;entryDx=0;entryDy=0;" parent="1" source="FgihYTtlnY5JfmEfMLE0-236" target="FgihYTtlnY5JfmEfMLE0-238" edge="1">
          <mxGeometry relative="1" as="geometry" />
        </mxCell>
        <mxCell id="FgihYTtlnY5JfmEfMLE0-235" value="&lt;font style=&quot;font-size: 18px;&quot;&gt;YES&lt;/font&gt;" style="edgeLabel;html=1;align=center;verticalAlign=middle;resizable=0;points=[];" parent="FgihYTtlnY5JfmEfMLE0-234" vertex="1" connectable="0">
          <mxGeometry x="0.1" y="-1" relative="1" as="geometry">
            <mxPoint x="1" as="offset" />
          </mxGeometry>
        </mxCell>
        <mxCell id="FgihYTtlnY5JfmEfMLE0-236" value="&lt;font style=&quot;font-size: 15px;&quot;&gt;Check if user accepts banker offer&lt;/font&gt;" style="shape=parallelogram;perimeter=parallelogramPerimeter;whiteSpace=wrap;html=1;fixedSize=1;" parent="1" vertex="1">
          <mxGeometry x="739" y="5260" width="260" height="80" as="geometry" />
        </mxCell>
        <mxCell id="FgihYTtlnY5JfmEfMLE0-237" value="" style="edgeStyle=orthogonalEdgeStyle;rounded=0;orthogonalLoop=1;jettySize=auto;html=1;" parent="1" source="FgihYTtlnY5JfmEfMLE0-238" target="FgihYTtlnY5JfmEfMLE0-240" edge="1">
          <mxGeometry relative="1" as="geometry" />
        </mxCell>
        <mxCell id="FgihYTtlnY5JfmEfMLE0-238" value="&lt;font style=&quot;font-size: 18px;&quot;&gt;call end_game function&lt;/font&gt;" style="rounded=0;whiteSpace=wrap;html=1;" parent="1" vertex="1">
          <mxGeometry x="444" y="5260" width="160" height="70" as="geometry" />
        </mxCell>
        <mxCell id="FgihYTtlnY5JfmEfMLE0-239" style="edgeStyle=orthogonalEdgeStyle;rounded=0;orthogonalLoop=1;jettySize=auto;html=1;" parent="1" source="FgihYTtlnY5JfmEfMLE0-240" target="FgihYTtlnY5JfmEfMLE0-241" edge="1">
          <mxGeometry relative="1" as="geometry">
            <mxPoint x="524" y="5460" as="targetPoint" />
          </mxGeometry>
        </mxCell>
        <mxCell id="FgihYTtlnY5JfmEfMLE0-240" value="&lt;font style=&quot;font-size: 18px;&quot;&gt;You won banker_offer write to Gamelog.csv&lt;/font&gt;" style="whiteSpace=wrap;html=1;rounded=0;" parent="1" vertex="1">
          <mxGeometry x="434" y="5360" width="180" height="75" as="geometry" />
        </mxCell>
        <mxCell id="FgihYTtlnY5JfmEfMLE0-241" value="print(user_case key and value)" style="rounded=0;whiteSpace=wrap;html=1;" parent="1" vertex="1">
          <mxGeometry x="434" y="5460" width="180" height="60" as="geometry" />
        </mxCell>
        <mxCell id="FgihYTtlnY5JfmEfMLE0-243" style="edgeStyle=orthogonalEdgeStyle;rounded=0;orthogonalLoop=1;jettySize=auto;html=1;entryX=0.554;entryY=0.05;entryDx=0;entryDy=0;entryPerimeter=0;" parent="1" source="FgihYTtlnY5JfmEfMLE0-210" target="FgihYTtlnY5JfmEfMLE0-236" edge="1">
          <mxGeometry relative="1" as="geometry" />
        </mxCell>
        <mxCell id="FgihYTtlnY5JfmEfMLE0-244" style="edgeStyle=orthogonalEdgeStyle;rounded=0;orthogonalLoop=1;jettySize=auto;html=1;entryX=0.5;entryY=0;entryDx=0;entryDy=0;" parent="1" target="FgihYTtlnY5JfmEfMLE0-246" edge="1">
          <mxGeometry relative="1" as="geometry">
            <mxPoint x="868.19" y="5510" as="targetPoint" />
            <mxPoint x="867.19" y="5340" as="sourcePoint" />
          </mxGeometry>
        </mxCell>
        <mxCell id="FgihYTtlnY5JfmEfMLE0-245" value="&lt;font style=&quot;font-size: 18px;&quot;&gt;NO&lt;/font&gt;" style="edgeLabel;html=1;align=center;verticalAlign=middle;resizable=0;points=[];" parent="FgihYTtlnY5JfmEfMLE0-244" vertex="1" connectable="0">
          <mxGeometry x="-0.0718" y="-2" relative="1" as="geometry">
            <mxPoint as="offset" />
          </mxGeometry>
        </mxCell>
        <mxCell id="FgihYTtlnY5JfmEfMLE0-246" value="&lt;span style=&quot;font-size: 16px;&quot;&gt;Call game function(4)&lt;/span&gt;" style="whiteSpace=wrap;html=1;rounded=0;" parent="1" vertex="1">
          <mxGeometry x="759.63" y="5560" width="218.75" height="100" as="geometry" />
        </mxCell>
        <mxCell id="FgihYTtlnY5JfmEfMLE0-247" value="" style="edgeStyle=orthogonalEdgeStyle;rounded=0;orthogonalLoop=1;jettySize=auto;html=1;" parent="1" source="FgihYTtlnY5JfmEfMLE0-248" target="FgihYTtlnY5JfmEfMLE0-250" edge="1">
          <mxGeometry relative="1" as="geometry" />
        </mxCell>
        <mxCell id="FgihYTtlnY5JfmEfMLE0-248" value="&lt;span style=&quot;font-size: 16px;&quot;&gt;game(count):&lt;br&gt;&lt;/span&gt;" style="whiteSpace=wrap;html=1;rounded=0;" parent="1" vertex="1">
          <mxGeometry x="416.65" y="5580" width="222.5" height="70" as="geometry" />
        </mxCell>
        <mxCell id="FgihYTtlnY5JfmEfMLE0-249" style="edgeStyle=orthogonalEdgeStyle;rounded=0;orthogonalLoop=1;jettySize=auto;html=1;" parent="1" source="FgihYTtlnY5JfmEfMLE0-267" target="FgihYTtlnY5JfmEfMLE0-252" edge="1">
          <mxGeometry relative="1" as="geometry" />
        </mxCell>
        <mxCell id="FgihYTtlnY5JfmEfMLE0-250" value="Is count &amp;lt;= 6" style="rhombus;whiteSpace=wrap;html=1;rounded=0;" parent="1" vertex="1">
          <mxGeometry x="453.53" y="5725" width="148.75" height="130" as="geometry" />
        </mxCell>
        <mxCell id="FgihYTtlnY5JfmEfMLE0-251" style="edgeStyle=orthogonalEdgeStyle;rounded=0;orthogonalLoop=1;jettySize=auto;html=1;entryX=0.5;entryY=0;entryDx=0;entryDy=0;" parent="1" source="FgihYTtlnY5JfmEfMLE0-252" target="FgihYTtlnY5JfmEfMLE0-257" edge="1">
          <mxGeometry relative="1" as="geometry" />
        </mxCell>
        <mxCell id="FgihYTtlnY5JfmEfMLE0-252" value="&lt;font style=&quot;font-size: 15px;&quot;&gt;Ask User to pick a case&lt;/font&gt;" style="shape=parallelogram;perimeter=parallelogramPerimeter;whiteSpace=wrap;html=1;fixedSize=1;" parent="1" vertex="1">
          <mxGeometry x="430.04999999999995" y="6030" width="205" height="80" as="geometry" />
        </mxCell>
        <mxCell id="FgihYTtlnY5JfmEfMLE0-253" style="edgeStyle=orthogonalEdgeStyle;rounded=0;orthogonalLoop=1;jettySize=auto;html=1;entryX=0.972;entryY=0.375;entryDx=0;entryDy=0;entryPerimeter=0;" parent="1" source="FgihYTtlnY5JfmEfMLE0-257" target="FgihYTtlnY5JfmEfMLE0-252" edge="1">
          <mxGeometry relative="1" as="geometry">
            <mxPoint x="436.29999999999995" y="6030" as="targetPoint" />
            <Array as="points">
              <mxPoint x="681.3" y="6260" />
              <mxPoint x="681.3" y="6060" />
            </Array>
          </mxGeometry>
        </mxCell>
        <mxCell id="FgihYTtlnY5JfmEfMLE0-254" value="&lt;font style=&quot;font-size: 18px;&quot;&gt;NO&lt;/font&gt;" style="edgeLabel;html=1;align=center;verticalAlign=middle;resizable=0;points=[];" parent="FgihYTtlnY5JfmEfMLE0-253" vertex="1" connectable="0">
          <mxGeometry x="-0.1561" relative="1" as="geometry">
            <mxPoint y="-22" as="offset" />
          </mxGeometry>
        </mxCell>
        <mxCell id="FgihYTtlnY5JfmEfMLE0-255" style="edgeStyle=orthogonalEdgeStyle;rounded=0;orthogonalLoop=1;jettySize=auto;html=1;" parent="1" source="FgihYTtlnY5JfmEfMLE0-257" target="FgihYTtlnY5JfmEfMLE0-259" edge="1">
          <mxGeometry relative="1" as="geometry">
            <mxPoint x="532.5550000000001" y="6450" as="targetPoint" />
          </mxGeometry>
        </mxCell>
        <mxCell id="FgihYTtlnY5JfmEfMLE0-256" value="&lt;font style=&quot;font-size: 18px;&quot;&gt;YES&lt;/font&gt;" style="edgeLabel;html=1;align=center;verticalAlign=middle;resizable=0;points=[];" parent="FgihYTtlnY5JfmEfMLE0-255" vertex="1" connectable="0">
          <mxGeometry x="-0.2667" y="2" relative="1" as="geometry">
            <mxPoint as="offset" />
          </mxGeometry>
        </mxCell>
        <mxCell id="FgihYTtlnY5JfmEfMLE0-257" value="&lt;font style=&quot;font-size: 14px;&quot;&gt;check if input == Shuffled_cases[key]&lt;/font&gt;" style="rhombus;whiteSpace=wrap;html=1;" parent="1" vertex="1">
          <mxGeometry x="434.12" y="6150" width="196.87" height="220" as="geometry" />
        </mxCell>
        <mxCell id="FgihYTtlnY5JfmEfMLE0-258" value="" style="edgeStyle=orthogonalEdgeStyle;rounded=0;orthogonalLoop=1;jettySize=auto;html=1;" parent="1" source="FgihYTtlnY5JfmEfMLE0-259" edge="1">
          <mxGeometry relative="1" as="geometry">
            <mxPoint x="532.53" y="6550" as="targetPoint" />
          </mxGeometry>
        </mxCell>
        <mxCell id="FgihYTtlnY5JfmEfMLE0-259" value="&lt;font size=&quot;3&quot;&gt;shuffle_cases.pop(key)&amp;nbsp;&lt;/font&gt;" style="rounded=0;whiteSpace=wrap;html=1;" parent="1" vertex="1">
          <mxGeometry x="438.19000000000005" y="6430" width="188.74" height="80" as="geometry" />
        </mxCell>
        <mxCell id="FgihYTtlnY5JfmEfMLE0-260" style="edgeStyle=orthogonalEdgeStyle;rounded=0;orthogonalLoop=1;jettySize=auto;html=1;" parent="1" source="FgihYTtlnY5JfmEfMLE0-261" edge="1">
          <mxGeometry relative="1" as="geometry">
            <mxPoint x="532.53" y="6850" as="targetPoint" />
          </mxGeometry>
        </mxCell>
        <mxCell id="FgihYTtlnY5JfmEfMLE0-261" value="&lt;font style=&quot;font-size: 14px;&quot;&gt;check if Shuffled cases not in values_left&lt;br&gt;values_left.pop&lt;br&gt;&lt;/font&gt;" style="rhombus;whiteSpace=wrap;html=1;" parent="1" vertex="1">
          <mxGeometry x="377.55999999999995" y="6550" width="310" height="250" as="geometry" />
        </mxCell>
        <mxCell id="FgihYTtlnY5JfmEfMLE0-262" style="edgeStyle=orthogonalEdgeStyle;rounded=0;orthogonalLoop=1;jettySize=auto;html=1;entryX=0;entryY=0.5;entryDx=0;entryDy=0;exitX=0.5;exitY=0;exitDx=0;exitDy=0;" parent="1" source="FgihYTtlnY5JfmEfMLE0-265" target="FgihYTtlnY5JfmEfMLE0-250" edge="1">
          <mxGeometry relative="1" as="geometry">
            <mxPoint x="223.77999999999997" y="6265" as="sourcePoint" />
            <Array as="points">
              <mxPoint x="333.78" y="5790" />
            </Array>
          </mxGeometry>
        </mxCell>
        <mxCell id="FgihYTtlnY5JfmEfMLE0-263" style="edgeStyle=orthogonalEdgeStyle;rounded=0;orthogonalLoop=1;jettySize=auto;html=1;entryX=0.5;entryY=1;entryDx=0;entryDy=0;" parent="1" source="FgihYTtlnY5JfmEfMLE0-264" target="FgihYTtlnY5JfmEfMLE0-265" edge="1">
          <mxGeometry relative="1" as="geometry">
            <mxPoint x="166.1049999999998" y="6395" as="targetPoint" />
            <Array as="points">
              <mxPoint x="333.78" y="6785" />
              <mxPoint x="333.78" y="6395" />
            </Array>
          </mxGeometry>
        </mxCell>
        <mxCell id="FgihYTtlnY5JfmEfMLE0-264" value="&lt;font style=&quot;font-size: 18px;&quot;&gt;print(values_left)&lt;br&gt;write to Gamelog.csv&lt;/font&gt;" style="rounded=0;whiteSpace=wrap;html=1;" parent="1" vertex="1">
          <mxGeometry x="408.43000000000006" y="6850" width="240" height="110" as="geometry" />
        </mxCell>
        <mxCell id="FgihYTtlnY5JfmEfMLE0-265" value="count += 1" style="rounded=0;whiteSpace=wrap;html=1;" parent="1" vertex="1">
          <mxGeometry x="273.78499999999985" y="6315" width="120" height="60" as="geometry" />
        </mxCell>
        <mxCell id="FgihYTtlnY5JfmEfMLE0-266" value="" style="edgeStyle=orthogonalEdgeStyle;rounded=0;orthogonalLoop=1;jettySize=auto;html=1;" parent="1" source="FgihYTtlnY5JfmEfMLE0-250" target="FgihYTtlnY5JfmEfMLE0-267" edge="1">
          <mxGeometry relative="1" as="geometry">
            <mxPoint x="527.78" y="5855" as="sourcePoint" />
            <mxPoint x="527.78" y="5925" as="targetPoint" />
          </mxGeometry>
        </mxCell>
        <mxCell id="FgihYTtlnY5JfmEfMLE0-267" value="&lt;font size=&quot;3&quot;&gt;print(values_left)&lt;/font&gt;" style="rounded=0;whiteSpace=wrap;html=1;" parent="1" vertex="1">
          <mxGeometry x="433.78" y="5895" width="188.74" height="80" as="geometry" />
        </mxCell>
        <mxCell id="FgihYTtlnY5JfmEfMLE0-268" style="edgeStyle=orthogonalEdgeStyle;rounded=0;orthogonalLoop=1;jettySize=auto;html=1;entryX=0.995;entryY=0.4;entryDx=0;entryDy=0;entryPerimeter=0;" parent="1" source="FgihYTtlnY5JfmEfMLE0-246" target="FgihYTtlnY5JfmEfMLE0-248" edge="1">
          <mxGeometry relative="1" as="geometry" />
        </mxCell>
        <mxCell id="FgihYTtlnY5JfmEfMLE0-269" style="edgeStyle=orthogonalEdgeStyle;rounded=0;orthogonalLoop=1;jettySize=auto;html=1;" parent="1" source="FgihYTtlnY5JfmEfMLE0-271" edge="1">
          <mxGeometry relative="1" as="geometry">
            <mxPoint x="1078.1799999999998" y="5830" as="targetPoint" />
          </mxGeometry>
        </mxCell>
        <mxCell id="FgihYTtlnY5JfmEfMLE0-270" value="&lt;font style=&quot;font-size: 18px;&quot;&gt;YES&lt;/font&gt;" style="edgeLabel;html=1;align=center;verticalAlign=middle;resizable=0;points=[];" parent="FgihYTtlnY5JfmEfMLE0-269" vertex="1" connectable="0">
          <mxGeometry x="0.1789" relative="1" as="geometry">
            <mxPoint x="55" as="offset" />
          </mxGeometry>
        </mxCell>
        <mxCell id="FgihYTtlnY5JfmEfMLE0-271" value="&lt;font style=&quot;font-size: 15px;&quot;&gt;Check if user accepts banker offer&lt;/font&gt;" style="shape=parallelogram;perimeter=parallelogramPerimeter;whiteSpace=wrap;html=1;fixedSize=1;" parent="1" vertex="1">
          <mxGeometry x="753.1800000000001" y="5790" width="260" height="80" as="geometry" />
        </mxCell>
        <mxCell id="FgihYTtlnY5JfmEfMLE0-272" value="" style="edgeStyle=orthogonalEdgeStyle;rounded=0;orthogonalLoop=1;jettySize=auto;html=1;" parent="1" source="FgihYTtlnY5JfmEfMLE0-273" target="FgihYTtlnY5JfmEfMLE0-275" edge="1">
          <mxGeometry relative="1" as="geometry" />
        </mxCell>
        <mxCell id="FgihYTtlnY5JfmEfMLE0-273" value="&lt;font style=&quot;font-size: 18px;&quot;&gt;call end_game function&lt;/font&gt;" style="rounded=0;whiteSpace=wrap;html=1;" parent="1" vertex="1">
          <mxGeometry x="1133.6799999999998" y="5800" width="160" height="70" as="geometry" />
        </mxCell>
        <mxCell id="FgihYTtlnY5JfmEfMLE0-274" style="edgeStyle=orthogonalEdgeStyle;rounded=0;orthogonalLoop=1;jettySize=auto;html=1;" parent="1" source="FgihYTtlnY5JfmEfMLE0-275" target="FgihYTtlnY5JfmEfMLE0-276" edge="1">
          <mxGeometry relative="1" as="geometry">
            <mxPoint x="1213.6799999999998" y="6000" as="targetPoint" />
          </mxGeometry>
        </mxCell>
        <mxCell id="FgihYTtlnY5JfmEfMLE0-275" value="&lt;font style=&quot;font-size: 18px;&quot;&gt;You won banker_offer write to Gamelog.csv&lt;/font&gt;" style="whiteSpace=wrap;html=1;rounded=0;" parent="1" vertex="1">
          <mxGeometry x="1123.6799999999998" y="5900" width="180" height="75" as="geometry" />
        </mxCell>
        <mxCell id="FgihYTtlnY5JfmEfMLE0-276" value="print(user_case key and value)" style="rounded=0;whiteSpace=wrap;html=1;" parent="1" vertex="1">
          <mxGeometry x="1123.6799999999998" y="6000" width="180" height="60" as="geometry" />
        </mxCell>
        <mxCell id="FgihYTtlnY5JfmEfMLE0-277" style="edgeStyle=orthogonalEdgeStyle;rounded=0;orthogonalLoop=1;jettySize=auto;html=1;entryX=0.5;entryY=0;entryDx=0;entryDy=0;" parent="1" target="FgihYTtlnY5JfmEfMLE0-280" edge="1">
          <mxGeometry relative="1" as="geometry">
            <mxPoint x="886.31" y="6040" as="targetPoint" />
            <mxPoint x="885.31" y="5870" as="sourcePoint" />
          </mxGeometry>
        </mxCell>
        <mxCell id="FgihYTtlnY5JfmEfMLE0-278" value="&lt;font style=&quot;font-size: 18px;&quot;&gt;NO&lt;/font&gt;" style="edgeLabel;html=1;align=center;verticalAlign=middle;resizable=0;points=[];" parent="FgihYTtlnY5JfmEfMLE0-277" vertex="1" connectable="0">
          <mxGeometry x="-0.0718" y="-2" relative="1" as="geometry">
            <mxPoint as="offset" />
          </mxGeometry>
        </mxCell>
        <mxCell id="FgihYTtlnY5JfmEfMLE0-279" style="edgeStyle=orthogonalEdgeStyle;rounded=0;orthogonalLoop=1;jettySize=auto;html=1;entryX=0;entryY=0.5;entryDx=0;entryDy=0;" parent="1" source="FgihYTtlnY5JfmEfMLE0-280" target="FgihYTtlnY5JfmEfMLE0-282" edge="1">
          <mxGeometry relative="1" as="geometry" />
        </mxCell>
        <mxCell id="FgihYTtlnY5JfmEfMLE0-280" value="&lt;span style=&quot;font-size: 16px;&quot;&gt;Call game function(5)&lt;/span&gt;" style="whiteSpace=wrap;html=1;rounded=0;" parent="1" vertex="1">
          <mxGeometry x="780.37" y="6125" width="218.75" height="100" as="geometry" />
        </mxCell>
        <mxCell id="FgihYTtlnY5JfmEfMLE0-281" value="" style="edgeStyle=orthogonalEdgeStyle;rounded=0;orthogonalLoop=1;jettySize=auto;html=1;" parent="1" source="FgihYTtlnY5JfmEfMLE0-282" target="FgihYTtlnY5JfmEfMLE0-284" edge="1">
          <mxGeometry relative="1" as="geometry" />
        </mxCell>
        <mxCell id="FgihYTtlnY5JfmEfMLE0-282" value="&lt;span style=&quot;font-size: 16px;&quot;&gt;game(count):&lt;br&gt;&lt;/span&gt;" style="whiteSpace=wrap;html=1;rounded=0;" parent="1" vertex="1">
          <mxGeometry x="1210.71" y="6140" width="222.5" height="70" as="geometry" />
        </mxCell>
        <mxCell id="FgihYTtlnY5JfmEfMLE0-283" style="edgeStyle=orthogonalEdgeStyle;rounded=0;orthogonalLoop=1;jettySize=auto;html=1;" parent="1" source="FgihYTtlnY5JfmEfMLE0-301" target="FgihYTtlnY5JfmEfMLE0-286" edge="1">
          <mxGeometry relative="1" as="geometry" />
        </mxCell>
        <mxCell id="FgihYTtlnY5JfmEfMLE0-284" value="Is count &amp;lt;= 6" style="rhombus;whiteSpace=wrap;html=1;rounded=0;" parent="1" vertex="1">
          <mxGeometry x="1247.58" y="6265" width="148.75" height="130" as="geometry" />
        </mxCell>
        <mxCell id="FgihYTtlnY5JfmEfMLE0-285" style="edgeStyle=orthogonalEdgeStyle;rounded=0;orthogonalLoop=1;jettySize=auto;html=1;entryX=0.5;entryY=0;entryDx=0;entryDy=0;" parent="1" source="FgihYTtlnY5JfmEfMLE0-286" target="FgihYTtlnY5JfmEfMLE0-291" edge="1">
          <mxGeometry relative="1" as="geometry" />
        </mxCell>
        <mxCell id="FgihYTtlnY5JfmEfMLE0-286" value="&lt;font style=&quot;font-size: 15px;&quot;&gt;Ask User to pick a case&lt;/font&gt;" style="shape=parallelogram;perimeter=parallelogramPerimeter;whiteSpace=wrap;html=1;fixedSize=1;" parent="1" vertex="1">
          <mxGeometry x="1224.1" y="6570" width="205" height="80" as="geometry" />
        </mxCell>
        <mxCell id="FgihYTtlnY5JfmEfMLE0-287" style="edgeStyle=orthogonalEdgeStyle;rounded=0;orthogonalLoop=1;jettySize=auto;html=1;entryX=0.972;entryY=0.375;entryDx=0;entryDy=0;entryPerimeter=0;" parent="1" source="FgihYTtlnY5JfmEfMLE0-291" target="FgihYTtlnY5JfmEfMLE0-286" edge="1">
          <mxGeometry relative="1" as="geometry">
            <mxPoint x="1230.35" y="6570" as="targetPoint" />
            <Array as="points">
              <mxPoint x="1475.3500000000001" y="6800" />
              <mxPoint x="1475.3500000000001" y="6600" />
            </Array>
          </mxGeometry>
        </mxCell>
        <mxCell id="FgihYTtlnY5JfmEfMLE0-288" value="&lt;font style=&quot;font-size: 18px;&quot;&gt;NO&lt;/font&gt;" style="edgeLabel;html=1;align=center;verticalAlign=middle;resizable=0;points=[];" parent="FgihYTtlnY5JfmEfMLE0-287" vertex="1" connectable="0">
          <mxGeometry x="-0.1561" relative="1" as="geometry">
            <mxPoint y="-22" as="offset" />
          </mxGeometry>
        </mxCell>
        <mxCell id="FgihYTtlnY5JfmEfMLE0-289" style="edgeStyle=orthogonalEdgeStyle;rounded=0;orthogonalLoop=1;jettySize=auto;html=1;" parent="1" source="FgihYTtlnY5JfmEfMLE0-291" target="FgihYTtlnY5JfmEfMLE0-293" edge="1">
          <mxGeometry relative="1" as="geometry">
            <mxPoint x="1326.605" y="6990" as="targetPoint" />
          </mxGeometry>
        </mxCell>
        <mxCell id="FgihYTtlnY5JfmEfMLE0-290" value="&lt;font style=&quot;font-size: 18px;&quot;&gt;YES&lt;/font&gt;" style="edgeLabel;html=1;align=center;verticalAlign=middle;resizable=0;points=[];" parent="FgihYTtlnY5JfmEfMLE0-289" vertex="1" connectable="0">
          <mxGeometry x="-0.2667" y="2" relative="1" as="geometry">
            <mxPoint as="offset" />
          </mxGeometry>
        </mxCell>
        <mxCell id="FgihYTtlnY5JfmEfMLE0-291" value="&lt;font style=&quot;font-size: 14px;&quot;&gt;&amp;nbsp; &amp;nbsp;try input == shuffle_cases[key]&lt;/font&gt;" style="rhombus;whiteSpace=wrap;html=1;" parent="1" vertex="1">
          <mxGeometry x="1228.17" y="6690" width="196.87" height="220" as="geometry" />
        </mxCell>
        <mxCell id="FgihYTtlnY5JfmEfMLE0-292" value="" style="edgeStyle=orthogonalEdgeStyle;rounded=0;orthogonalLoop=1;jettySize=auto;html=1;" parent="1" source="FgihYTtlnY5JfmEfMLE0-293" edge="1">
          <mxGeometry relative="1" as="geometry">
            <mxPoint x="1326.58" y="7090" as="targetPoint" />
          </mxGeometry>
        </mxCell>
        <mxCell id="FgihYTtlnY5JfmEfMLE0-293" value="&lt;font size=&quot;3&quot;&gt;shuffle_cases.pop(key)&amp;nbsp;&lt;/font&gt;" style="rounded=0;whiteSpace=wrap;html=1;" parent="1" vertex="1">
          <mxGeometry x="1232.2399999999998" y="6970" width="188.74" height="80" as="geometry" />
        </mxCell>
        <mxCell id="FgihYTtlnY5JfmEfMLE0-294" style="edgeStyle=orthogonalEdgeStyle;rounded=0;orthogonalLoop=1;jettySize=auto;html=1;" parent="1" source="FgihYTtlnY5JfmEfMLE0-295" edge="1">
          <mxGeometry relative="1" as="geometry">
            <mxPoint x="1326.58" y="7390" as="targetPoint" />
          </mxGeometry>
        </mxCell>
        <mxCell id="FgihYTtlnY5JfmEfMLE0-295" value="&lt;font style=&quot;font-size: 14px;&quot;&gt;for key, value in value_left.items():&lt;br&gt;if value_left[key] not in shuffle_cases[key]&lt;br&gt;value_left[key].pop&lt;br&gt;&lt;/font&gt;" style="rhombus;whiteSpace=wrap;html=1;" parent="1" vertex="1">
          <mxGeometry x="1187.83" y="7090" width="278.04" height="250" as="geometry" />
        </mxCell>
        <mxCell id="FgihYTtlnY5JfmEfMLE0-296" style="edgeStyle=orthogonalEdgeStyle;rounded=0;orthogonalLoop=1;jettySize=auto;html=1;entryX=0;entryY=0.5;entryDx=0;entryDy=0;exitX=0.5;exitY=0;exitDx=0;exitDy=0;" parent="1" target="FgihYTtlnY5JfmEfMLE0-284" edge="1">
          <mxGeometry relative="1" as="geometry">
            <mxPoint x="1127.835" y="6855" as="sourcePoint" />
            <Array as="points">
              <mxPoint x="1127.83" y="6330" />
            </Array>
          </mxGeometry>
        </mxCell>
        <mxCell id="FgihYTtlnY5JfmEfMLE0-297" style="edgeStyle=orthogonalEdgeStyle;rounded=0;orthogonalLoop=1;jettySize=auto;html=1;entryX=0.5;entryY=1;entryDx=0;entryDy=0;" parent="1" source="FgihYTtlnY5JfmEfMLE0-298" target="FgihYTtlnY5JfmEfMLE0-299" edge="1">
          <mxGeometry relative="1" as="geometry">
            <mxPoint x="1127.835" y="6915" as="targetPoint" />
            <Array as="points">
              <mxPoint x="1127.83" y="7445" />
            </Array>
          </mxGeometry>
        </mxCell>
        <mxCell id="FgihYTtlnY5JfmEfMLE0-298" value="&lt;font style=&quot;font-size: 18px;&quot;&gt;print(values_left)&lt;br&gt;write to Gamelog.csv&lt;/font&gt;" style="rounded=0;whiteSpace=wrap;html=1;" parent="1" vertex="1">
          <mxGeometry x="1202.48" y="7390" width="240" height="110" as="geometry" />
        </mxCell>
        <mxCell id="FgihYTtlnY5JfmEfMLE0-299" value="count += 1" style="rounded=0;whiteSpace=wrap;html=1;" parent="1" vertex="1">
          <mxGeometry x="1067.8249999999998" y="6850" width="120" height="60" as="geometry" />
        </mxCell>
        <mxCell id="FgihYTtlnY5JfmEfMLE0-300" value="" style="edgeStyle=orthogonalEdgeStyle;rounded=0;orthogonalLoop=1;jettySize=auto;html=1;" parent="1" source="FgihYTtlnY5JfmEfMLE0-284" target="FgihYTtlnY5JfmEfMLE0-301" edge="1">
          <mxGeometry relative="1" as="geometry">
            <mxPoint x="1321.83" y="6395" as="sourcePoint" />
            <mxPoint x="1321.83" y="6465" as="targetPoint" />
          </mxGeometry>
        </mxCell>
        <mxCell id="FgihYTtlnY5JfmEfMLE0-301" value="&lt;font size=&quot;3&quot;&gt;print(values_left)&lt;/font&gt;" style="rounded=0;whiteSpace=wrap;html=1;" parent="1" vertex="1">
          <mxGeometry x="1227.83" y="6435" width="188.74" height="80" as="geometry" />
        </mxCell>
        <mxCell id="FgihYTtlnY5JfmEfMLE0-319" style="edgeStyle=orthogonalEdgeStyle;rounded=0;orthogonalLoop=1;jettySize=auto;html=1;" parent="1" source="FgihYTtlnY5JfmEfMLE0-302" target="FgihYTtlnY5JfmEfMLE0-315" edge="1">
          <mxGeometry relative="1" as="geometry" />
        </mxCell>
        <mxCell id="FgihYTtlnY5JfmEfMLE0-320" value="&lt;font style=&quot;font-size: 18px;&quot;&gt;YES&lt;/font&gt;" style="edgeLabel;html=1;align=center;verticalAlign=middle;resizable=0;points=[];" parent="FgihYTtlnY5JfmEfMLE0-319" vertex="1" connectable="0">
          <mxGeometry x="-0.0667" y="1" relative="1" as="geometry">
            <mxPoint as="offset" />
          </mxGeometry>
        </mxCell>
        <mxCell id="FgihYTtlnY5JfmEfMLE0-302" value="&lt;font style=&quot;font-size: 15px;&quot;&gt;Check if user accepts banker offer&lt;/font&gt;" style="shape=parallelogram;perimeter=parallelogramPerimeter;whiteSpace=wrap;html=1;fixedSize=1;" parent="1" vertex="1">
          <mxGeometry x="745" y="7015" width="260" height="80" as="geometry" />
        </mxCell>
        <mxCell id="FgihYTtlnY5JfmEfMLE0-303" style="edgeStyle=orthogonalEdgeStyle;rounded=0;orthogonalLoop=1;jettySize=auto;html=1;entryX=0.554;entryY=0.05;entryDx=0;entryDy=0;entryPerimeter=0;" parent="1" source="FgihYTtlnY5JfmEfMLE0-280" target="FgihYTtlnY5JfmEfMLE0-302" edge="1">
          <mxGeometry relative="1" as="geometry" />
        </mxCell>
        <mxCell id="FgihYTtlnY5JfmEfMLE0-304" style="edgeStyle=orthogonalEdgeStyle;rounded=0;orthogonalLoop=1;jettySize=auto;html=1;entryX=0.5;entryY=0;entryDx=0;entryDy=0;" parent="1" target="FgihYTtlnY5JfmEfMLE0-306" edge="1">
          <mxGeometry relative="1" as="geometry">
            <mxPoint x="874.19" y="7265" as="targetPoint" />
            <mxPoint x="873.19" y="7095" as="sourcePoint" />
          </mxGeometry>
        </mxCell>
        <mxCell id="FgihYTtlnY5JfmEfMLE0-305" value="&lt;font style=&quot;font-size: 18px;&quot;&gt;NO&lt;/font&gt;" style="edgeLabel;html=1;align=center;verticalAlign=middle;resizable=0;points=[];" parent="FgihYTtlnY5JfmEfMLE0-304" vertex="1" connectable="0">
          <mxGeometry x="-0.0718" y="-2" relative="1" as="geometry">
            <mxPoint as="offset" />
          </mxGeometry>
        </mxCell>
        <mxCell id="FgihYTtlnY5JfmEfMLE0-342" style="edgeStyle=orthogonalEdgeStyle;rounded=0;orthogonalLoop=1;jettySize=auto;html=1;entryX=1;entryY=0.5;entryDx=0;entryDy=0;" parent="1" source="FgihYTtlnY5JfmEfMLE0-306" target="FgihYTtlnY5JfmEfMLE0-322" edge="1">
          <mxGeometry relative="1" as="geometry" />
        </mxCell>
        <mxCell id="FgihYTtlnY5JfmEfMLE0-306" value="&lt;span style=&quot;font-size: 16px;&quot;&gt;Call game function(6, vales_left)&lt;/span&gt;" style="whiteSpace=wrap;html=1;rounded=0;" parent="1" vertex="1">
          <mxGeometry x="762.25" y="7410" width="218.75" height="100" as="geometry" />
        </mxCell>
        <mxCell id="FgihYTtlnY5JfmEfMLE0-307" style="edgeStyle=orthogonalEdgeStyle;rounded=0;orthogonalLoop=1;jettySize=auto;html=1;entryX=0.453;entryY=-0.037;entryDx=0;entryDy=0;entryPerimeter=0;" parent="1" source="FgihYTtlnY5JfmEfMLE0-246" target="FgihYTtlnY5JfmEfMLE0-271" edge="1">
          <mxGeometry relative="1" as="geometry" />
        </mxCell>
        <mxCell id="FgihYTtlnY5JfmEfMLE0-308" value="&lt;span style=&quot;font-size: 16px;&quot;&gt;call Banker_offer function&lt;br&gt;&lt;/span&gt;" style="whiteSpace=wrap;html=1;rounded=0;" parent="1" vertex="1">
          <mxGeometry x="765.25" y="3270" width="222.5" height="70" as="geometry" />
        </mxCell>
        <mxCell id="FgihYTtlnY5JfmEfMLE0-309" value="&lt;span style=&quot;font-size: 16px;&quot;&gt;call Banker_offer function&lt;br&gt;&lt;/span&gt;" style="whiteSpace=wrap;html=1;rounded=0;" parent="1" vertex="1">
          <mxGeometry x="768.12" y="3890" width="222.5" height="70" as="geometry" />
        </mxCell>
        <mxCell id="FgihYTtlnY5JfmEfMLE0-310" value="&lt;span style=&quot;font-size: 16px;&quot;&gt;call Banker_offer function&lt;br&gt;&lt;/span&gt;" style="whiteSpace=wrap;html=1;rounded=0;" parent="1" vertex="1">
          <mxGeometry x="768.12" y="4960" width="222.5" height="70" as="geometry" />
        </mxCell>
        <mxCell id="FgihYTtlnY5JfmEfMLE0-311" value="&lt;span style=&quot;font-size: 16px;&quot;&gt;call Banker_offer function&lt;br&gt;&lt;/span&gt;" style="whiteSpace=wrap;html=1;rounded=0;" parent="1" vertex="1">
          <mxGeometry x="757.5" y="5690" width="222.5" height="70" as="geometry" />
        </mxCell>
        <mxCell id="FgihYTtlnY5JfmEfMLE0-312" value="&lt;span style=&quot;font-size: 16px;&quot;&gt;call Banker_offer function&lt;br&gt;&lt;/span&gt;" style="whiteSpace=wrap;html=1;rounded=0;" parent="1" vertex="1">
          <mxGeometry x="775" y="6890" width="222.5" height="70" as="geometry" />
        </mxCell>
        <mxCell id="FgihYTtlnY5JfmEfMLE0-314" value="" style="edgeStyle=orthogonalEdgeStyle;rounded=0;orthogonalLoop=1;jettySize=auto;html=1;" parent="1" source="FgihYTtlnY5JfmEfMLE0-315" target="FgihYTtlnY5JfmEfMLE0-317" edge="1">
          <mxGeometry relative="1" as="geometry" />
        </mxCell>
        <mxCell id="FgihYTtlnY5JfmEfMLE0-315" value="&lt;font style=&quot;font-size: 18px;&quot;&gt;call end_game function&lt;/font&gt;" style="rounded=0;whiteSpace=wrap;html=1;" parent="1" vertex="1">
          <mxGeometry x="470" y="7030" width="160" height="70" as="geometry" />
        </mxCell>
        <mxCell id="FgihYTtlnY5JfmEfMLE0-316" style="edgeStyle=orthogonalEdgeStyle;rounded=0;orthogonalLoop=1;jettySize=auto;html=1;" parent="1" source="FgihYTtlnY5JfmEfMLE0-317" target="FgihYTtlnY5JfmEfMLE0-318" edge="1">
          <mxGeometry relative="1" as="geometry">
            <mxPoint x="550" y="7230" as="targetPoint" />
          </mxGeometry>
        </mxCell>
        <mxCell id="FgihYTtlnY5JfmEfMLE0-317" value="&lt;font style=&quot;font-size: 18px;&quot;&gt;You won banker_offer write to Gamelog.csv&lt;/font&gt;" style="whiteSpace=wrap;html=1;rounded=0;" parent="1" vertex="1">
          <mxGeometry x="460" y="7130" width="180" height="75" as="geometry" />
        </mxCell>
        <mxCell id="FgihYTtlnY5JfmEfMLE0-318" value="print(user_case key and value)" style="rounded=0;whiteSpace=wrap;html=1;" parent="1" vertex="1">
          <mxGeometry x="460" y="7230" width="180" height="60" as="geometry" />
        </mxCell>
        <mxCell id="FgihYTtlnY5JfmEfMLE0-321" value="" style="edgeStyle=orthogonalEdgeStyle;rounded=0;orthogonalLoop=1;jettySize=auto;html=1;" parent="1" source="FgihYTtlnY5JfmEfMLE0-322" target="FgihYTtlnY5JfmEfMLE0-324" edge="1">
          <mxGeometry relative="1" as="geometry" />
        </mxCell>
        <mxCell id="FgihYTtlnY5JfmEfMLE0-322" value="&lt;span style=&quot;font-size: 16px;&quot;&gt;game(count):&lt;br&gt;&lt;/span&gt;" style="whiteSpace=wrap;html=1;rounded=0;" parent="1" vertex="1">
          <mxGeometry x="377.52" y="7420" width="222.5" height="70" as="geometry" />
        </mxCell>
        <mxCell id="FgihYTtlnY5JfmEfMLE0-323" style="edgeStyle=orthogonalEdgeStyle;rounded=0;orthogonalLoop=1;jettySize=auto;html=1;" parent="1" source="FgihYTtlnY5JfmEfMLE0-341" target="FgihYTtlnY5JfmEfMLE0-326" edge="1">
          <mxGeometry relative="1" as="geometry" />
        </mxCell>
        <mxCell id="FgihYTtlnY5JfmEfMLE0-361" style="edgeStyle=orthogonalEdgeStyle;rounded=0;orthogonalLoop=1;jettySize=auto;html=1;entryX=0;entryY=0.5;entryDx=0;entryDy=0;" parent="1" source="FgihYTtlnY5JfmEfMLE0-324" target="FgihYTtlnY5JfmEfMLE0-345" edge="1">
          <mxGeometry relative="1" as="geometry">
            <mxPoint x="870" y="7580" as="targetPoint" />
          </mxGeometry>
        </mxCell>
        <mxCell id="FgihYTtlnY5JfmEfMLE0-363" value="&lt;font style=&quot;font-size: 18px;&quot;&gt;NO&lt;/font&gt;" style="edgeLabel;html=1;align=center;verticalAlign=middle;resizable=0;points=[];" parent="FgihYTtlnY5JfmEfMLE0-361" vertex="1" connectable="0">
          <mxGeometry x="-0.011" y="-1" relative="1" as="geometry">
            <mxPoint as="offset" />
          </mxGeometry>
        </mxCell>
        <mxCell id="FgihYTtlnY5JfmEfMLE0-324" value="Is count &amp;lt;= 6" style="rhombus;whiteSpace=wrap;html=1;rounded=0;" parent="1" vertex="1">
          <mxGeometry x="414.4" y="7565" width="148.75" height="130" as="geometry" />
        </mxCell>
        <mxCell id="FgihYTtlnY5JfmEfMLE0-325" style="edgeStyle=orthogonalEdgeStyle;rounded=0;orthogonalLoop=1;jettySize=auto;html=1;entryX=0.5;entryY=0;entryDx=0;entryDy=0;" parent="1" source="FgihYTtlnY5JfmEfMLE0-326" target="FgihYTtlnY5JfmEfMLE0-331" edge="1">
          <mxGeometry relative="1" as="geometry" />
        </mxCell>
        <mxCell id="FgihYTtlnY5JfmEfMLE0-326" value="&lt;font style=&quot;font-size: 15px;&quot;&gt;Ask User to pick a case&lt;/font&gt;" style="shape=parallelogram;perimeter=parallelogramPerimeter;whiteSpace=wrap;html=1;fixedSize=1;" parent="1" vertex="1">
          <mxGeometry x="390.91999999999996" y="7870" width="205" height="80" as="geometry" />
        </mxCell>
        <mxCell id="FgihYTtlnY5JfmEfMLE0-327" style="edgeStyle=orthogonalEdgeStyle;rounded=0;orthogonalLoop=1;jettySize=auto;html=1;entryX=0.972;entryY=0.375;entryDx=0;entryDy=0;entryPerimeter=0;" parent="1" source="FgihYTtlnY5JfmEfMLE0-331" target="FgihYTtlnY5JfmEfMLE0-326" edge="1">
          <mxGeometry relative="1" as="geometry">
            <mxPoint x="397.16999999999996" y="7870" as="targetPoint" />
            <Array as="points">
              <mxPoint x="642.17" y="8100" />
              <mxPoint x="642.17" y="7900" />
            </Array>
          </mxGeometry>
        </mxCell>
        <mxCell id="FgihYTtlnY5JfmEfMLE0-328" value="&lt;font style=&quot;font-size: 18px;&quot;&gt;NO&lt;/font&gt;" style="edgeLabel;html=1;align=center;verticalAlign=middle;resizable=0;points=[];" parent="FgihYTtlnY5JfmEfMLE0-327" vertex="1" connectable="0">
          <mxGeometry x="-0.1561" relative="1" as="geometry">
            <mxPoint y="-22" as="offset" />
          </mxGeometry>
        </mxCell>
        <mxCell id="FgihYTtlnY5JfmEfMLE0-329" style="edgeStyle=orthogonalEdgeStyle;rounded=0;orthogonalLoop=1;jettySize=auto;html=1;" parent="1" source="FgihYTtlnY5JfmEfMLE0-331" target="FgihYTtlnY5JfmEfMLE0-333" edge="1">
          <mxGeometry relative="1" as="geometry">
            <mxPoint x="493.42500000000007" y="8290" as="targetPoint" />
          </mxGeometry>
        </mxCell>
        <mxCell id="FgihYTtlnY5JfmEfMLE0-330" value="&lt;font style=&quot;font-size: 18px;&quot;&gt;YES&lt;/font&gt;" style="edgeLabel;html=1;align=center;verticalAlign=middle;resizable=0;points=[];" parent="FgihYTtlnY5JfmEfMLE0-329" vertex="1" connectable="0">
          <mxGeometry x="-0.2667" y="2" relative="1" as="geometry">
            <mxPoint as="offset" />
          </mxGeometry>
        </mxCell>
        <mxCell id="FgihYTtlnY5JfmEfMLE0-331" value="&lt;font style=&quot;font-size: 14px;&quot;&gt;check if input == Shuffled_cases[key]&lt;/font&gt;" style="rhombus;whiteSpace=wrap;html=1;" parent="1" vertex="1">
          <mxGeometry x="394.99" y="7990" width="196.87" height="220" as="geometry" />
        </mxCell>
        <mxCell id="FgihYTtlnY5JfmEfMLE0-332" value="" style="edgeStyle=orthogonalEdgeStyle;rounded=0;orthogonalLoop=1;jettySize=auto;html=1;" parent="1" source="FgihYTtlnY5JfmEfMLE0-333" edge="1">
          <mxGeometry relative="1" as="geometry">
            <mxPoint x="493.39999999999986" y="8390" as="targetPoint" />
          </mxGeometry>
        </mxCell>
        <mxCell id="FgihYTtlnY5JfmEfMLE0-333" value="&lt;font size=&quot;3&quot;&gt;shuffle_cases.pop(key)&amp;nbsp;&lt;/font&gt;" style="rounded=0;whiteSpace=wrap;html=1;" parent="1" vertex="1">
          <mxGeometry x="399.05999999999995" y="8270" width="188.74" height="80" as="geometry" />
        </mxCell>
        <mxCell id="FgihYTtlnY5JfmEfMLE0-334" style="edgeStyle=orthogonalEdgeStyle;rounded=0;orthogonalLoop=1;jettySize=auto;html=1;" parent="1" source="FgihYTtlnY5JfmEfMLE0-335" edge="1">
          <mxGeometry relative="1" as="geometry">
            <mxPoint x="493.39999999999986" y="8690" as="targetPoint" />
          </mxGeometry>
        </mxCell>
        <mxCell id="FgihYTtlnY5JfmEfMLE0-335" value="&lt;font style=&quot;font-size: 14px;&quot;&gt;check if Shuffled cases not in values_left&lt;br&gt;values_left.pop&lt;br&gt;&lt;/font&gt;" style="rhombus;whiteSpace=wrap;html=1;" parent="1" vertex="1">
          <mxGeometry x="338.43000000000006" y="8390" width="310" height="250" as="geometry" />
        </mxCell>
        <mxCell id="FgihYTtlnY5JfmEfMLE0-336" style="edgeStyle=orthogonalEdgeStyle;rounded=0;orthogonalLoop=1;jettySize=auto;html=1;entryX=0;entryY=0.5;entryDx=0;entryDy=0;exitX=0.5;exitY=0;exitDx=0;exitDy=0;" parent="1" source="FgihYTtlnY5JfmEfMLE0-339" target="FgihYTtlnY5JfmEfMLE0-324" edge="1">
          <mxGeometry relative="1" as="geometry">
            <mxPoint x="184.64999999999998" y="8105" as="sourcePoint" />
            <Array as="points">
              <mxPoint x="294.65" y="7630" />
            </Array>
          </mxGeometry>
        </mxCell>
        <mxCell id="FgihYTtlnY5JfmEfMLE0-337" style="edgeStyle=orthogonalEdgeStyle;rounded=0;orthogonalLoop=1;jettySize=auto;html=1;entryX=0.5;entryY=1;entryDx=0;entryDy=0;" parent="1" source="FgihYTtlnY5JfmEfMLE0-338" target="FgihYTtlnY5JfmEfMLE0-339" edge="1">
          <mxGeometry relative="1" as="geometry">
            <mxPoint x="126.9749999999998" y="8235" as="targetPoint" />
            <Array as="points">
              <mxPoint x="294.65" y="8625" />
              <mxPoint x="294.65" y="8235" />
            </Array>
          </mxGeometry>
        </mxCell>
        <mxCell id="FgihYTtlnY5JfmEfMLE0-338" value="&lt;font style=&quot;font-size: 18px;&quot;&gt;print(values_left)&lt;br&gt;write to Gamelog.csv&lt;/font&gt;" style="rounded=0;whiteSpace=wrap;html=1;" parent="1" vertex="1">
          <mxGeometry x="369.29999999999995" y="8690" width="240" height="110" as="geometry" />
        </mxCell>
        <mxCell id="FgihYTtlnY5JfmEfMLE0-339" value="count += 1" style="rounded=0;whiteSpace=wrap;html=1;" parent="1" vertex="1">
          <mxGeometry x="234.65499999999986" y="8155" width="120" height="60" as="geometry" />
        </mxCell>
        <mxCell id="FgihYTtlnY5JfmEfMLE0-340" value="" style="edgeStyle=orthogonalEdgeStyle;rounded=0;orthogonalLoop=1;jettySize=auto;html=1;" parent="1" source="FgihYTtlnY5JfmEfMLE0-324" target="FgihYTtlnY5JfmEfMLE0-341" edge="1">
          <mxGeometry relative="1" as="geometry">
            <mxPoint x="488.65" y="7695" as="sourcePoint" />
            <mxPoint x="488.65" y="7765" as="targetPoint" />
          </mxGeometry>
        </mxCell>
        <mxCell id="FgihYTtlnY5JfmEfMLE0-362" value="&lt;span style=&quot;font-size: 18px;&quot;&gt;YES&lt;/span&gt;" style="edgeLabel;html=1;align=center;verticalAlign=middle;resizable=0;points=[];" parent="FgihYTtlnY5JfmEfMLE0-340" vertex="1" connectable="0">
          <mxGeometry x="-0.0044" y="-3" relative="1" as="geometry">
            <mxPoint as="offset" />
          </mxGeometry>
        </mxCell>
        <mxCell id="FgihYTtlnY5JfmEfMLE0-341" value="&lt;font size=&quot;3&quot;&gt;print(values_left)&lt;/font&gt;" style="rounded=0;whiteSpace=wrap;html=1;" parent="1" vertex="1">
          <mxGeometry x="394.65" y="7735" width="188.74" height="80" as="geometry" />
        </mxCell>
        <mxCell id="FgihYTtlnY5JfmEfMLE0-353" style="edgeStyle=orthogonalEdgeStyle;rounded=0;orthogonalLoop=1;jettySize=auto;html=1;" parent="1" source="FgihYTtlnY5JfmEfMLE0-344" target="FgihYTtlnY5JfmEfMLE0-349" edge="1">
          <mxGeometry relative="1" as="geometry" />
        </mxCell>
        <mxCell id="FgihYTtlnY5JfmEfMLE0-354" value="&lt;font style=&quot;font-size: 18px;&quot;&gt;YES&lt;/font&gt;" style="edgeLabel;html=1;align=center;verticalAlign=middle;resizable=0;points=[];" parent="FgihYTtlnY5JfmEfMLE0-353" vertex="1" connectable="0">
          <mxGeometry x="-0.071" y="5" relative="1" as="geometry">
            <mxPoint as="offset" />
          </mxGeometry>
        </mxCell>
        <mxCell id="FgihYTtlnY5JfmEfMLE0-355" style="edgeStyle=orthogonalEdgeStyle;rounded=0;orthogonalLoop=1;jettySize=auto;html=1;" parent="1" source="FgihYTtlnY5JfmEfMLE0-344" target="FgihYTtlnY5JfmEfMLE0-356" edge="1">
          <mxGeometry relative="1" as="geometry">
            <mxPoint x="877.5" y="8040" as="targetPoint" />
          </mxGeometry>
        </mxCell>
        <mxCell id="FgihYTtlnY5JfmEfMLE0-359" value="&lt;font style=&quot;font-size: 18px;&quot;&gt;NO&lt;/font&gt;" style="edgeLabel;html=1;align=center;verticalAlign=middle;resizable=0;points=[];" parent="FgihYTtlnY5JfmEfMLE0-355" vertex="1" connectable="0">
          <mxGeometry x="-0.1165" y="-2" relative="1" as="geometry">
            <mxPoint as="offset" />
          </mxGeometry>
        </mxCell>
        <mxCell id="FgihYTtlnY5JfmEfMLE0-344" value="&lt;font style=&quot;font-size: 15px;&quot;&gt;Check if user accepts banker offer&lt;/font&gt;" style="shape=parallelogram;perimeter=parallelogramPerimeter;whiteSpace=wrap;html=1;fixedSize=1;" parent="1" vertex="1">
          <mxGeometry x="747.5" y="7790" width="260" height="80" as="geometry" />
        </mxCell>
        <mxCell id="FgihYTtlnY5JfmEfMLE0-346" style="edgeStyle=orthogonalEdgeStyle;rounded=0;orthogonalLoop=1;jettySize=auto;html=1;" parent="1" source="FgihYTtlnY5JfmEfMLE0-345" target="FgihYTtlnY5JfmEfMLE0-344" edge="1">
          <mxGeometry relative="1" as="geometry" />
        </mxCell>
        <mxCell id="FgihYTtlnY5JfmEfMLE0-345" value="&lt;span style=&quot;font-size: 16px;&quot;&gt;call Banker_offer function&lt;br&gt;&lt;/span&gt;" style="whiteSpace=wrap;html=1;rounded=0;" parent="1" vertex="1">
          <mxGeometry x="767.5" y="7650" width="222.5" height="70" as="geometry" />
        </mxCell>
        <mxCell id="FgihYTtlnY5JfmEfMLE0-348" value="" style="edgeStyle=orthogonalEdgeStyle;rounded=0;orthogonalLoop=1;jettySize=auto;html=1;" parent="1" source="FgihYTtlnY5JfmEfMLE0-349" target="FgihYTtlnY5JfmEfMLE0-351" edge="1">
          <mxGeometry relative="1" as="geometry" />
        </mxCell>
        <mxCell id="FgihYTtlnY5JfmEfMLE0-349" value="&lt;font style=&quot;font-size: 18px;&quot;&gt;call game finish function&lt;/font&gt;" style="rounded=0;whiteSpace=wrap;html=1;" parent="1" vertex="1">
          <mxGeometry x="1097.6799999999998" y="7795" width="222.32" height="70" as="geometry" />
        </mxCell>
        <mxCell id="FgihYTtlnY5JfmEfMLE0-350" style="edgeStyle=orthogonalEdgeStyle;rounded=0;orthogonalLoop=1;jettySize=auto;html=1;" parent="1" source="FgihYTtlnY5JfmEfMLE0-351" target="FgihYTtlnY5JfmEfMLE0-352" edge="1">
          <mxGeometry relative="1" as="geometry">
            <mxPoint x="1187.6799999999998" y="8000" as="targetPoint" />
          </mxGeometry>
        </mxCell>
        <mxCell id="FgihYTtlnY5JfmEfMLE0-351" value="&lt;font style=&quot;font-size: 18px;&quot;&gt;You won banker_offer write to Gamelog.csv&lt;/font&gt;" style="whiteSpace=wrap;html=1;rounded=0;" parent="1" vertex="1">
          <mxGeometry x="1097.6799999999998" y="7900" width="180" height="75" as="geometry" />
        </mxCell>
        <mxCell id="FgihYTtlnY5JfmEfMLE0-352" value="print(user_case key and value)" style="rounded=0;whiteSpace=wrap;html=1;" parent="1" vertex="1">
          <mxGeometry x="1097.6799999999998" y="8000" width="180" height="60" as="geometry" />
        </mxCell>
        <mxCell id="FgihYTtlnY5JfmEfMLE0-357" style="edgeStyle=orthogonalEdgeStyle;rounded=0;orthogonalLoop=1;jettySize=auto;html=1;" parent="1" source="FgihYTtlnY5JfmEfMLE0-356" target="FgihYTtlnY5JfmEfMLE0-360" edge="1">
          <mxGeometry relative="1" as="geometry">
            <mxPoint x="1144.6999999999998" y="8180" as="targetPoint" />
          </mxGeometry>
        </mxCell>
        <mxCell id="FgihYTtlnY5JfmEfMLE0-356" value="&lt;font style=&quot;font-size: 18px;&quot;&gt;call finish_game function&lt;/font&gt;" style="rounded=0;whiteSpace=wrap;html=1;" parent="1" vertex="1">
          <mxGeometry x="760.25" y="8100" width="232.5" height="70" as="geometry" />
        </mxCell>
        <mxCell id="FgihYTtlnY5JfmEfMLE0-360" value="&lt;font style=&quot;font-size: 18px;&quot;&gt;Offer user Double or nothing&lt;/font&gt;" style="rounded=0;whiteSpace=wrap;html=1;" parent="1" vertex="1">
          <mxGeometry x="1010" y="8190" width="220" height="90" as="geometry" />
        </mxCell>
        <mxCell id="FgihYTtlnY5JfmEfMLE0-365" value="print(&quot;Error&quot;)" style="rounded=0;whiteSpace=wrap;html=1;" parent="1" vertex="1">
          <mxGeometry x="467.79999999999995" y="1610" width="120" height="60" as="geometry" />
        </mxCell>
      </root>
    </mxGraphModel>
  </diagram>
</mxfile>
